G04 #@! TF.FileFunction,Copper,L2,Bot,Signal*
%FSLAX46Y46*%
G04 Gerber Fmt 4.6, Leading zero omitted, Abs format (unit mm)*
G04 Created by KiCad (PCBNEW 4.0.6) date 07/02/17 00:09:43*
%MOMM*%
%LPD*%
G01*
G04 APERTURE LIST*
%ADD10C,0.100000*%
%ADD11C,0.635000*%
%ADD12C,0.355600*%
%ADD13C,0.254000*%
G04 APERTURE END LIST*
D10*
D11*
X7493000Y-24765000D03*
X15875000Y-24638000D03*
X4318000Y-24257000D03*
X7620000Y-19685000D03*
X13589000Y-21971000D03*
X11811000Y-24257000D03*
X5207000Y-23114000D03*
X10541000Y-22098000D03*
X9398000Y-20701000D03*
X17399000Y-24003000D03*
X15621000Y-19304000D03*
X8763000Y-18923000D03*
X6604000Y-18161000D03*
X4826000Y-20574000D03*
D12*
X15875000Y-24638000D02*
X15494000Y-25019000D01*
X5080000Y-25019000D02*
X4318000Y-24257000D01*
X15494000Y-25019000D02*
X5080000Y-25019000D01*
D13*
X13208000Y-22860000D02*
X13589000Y-22479000D01*
X13589000Y-22479000D02*
X13589000Y-21971000D01*
X11811000Y-24257000D02*
X13208000Y-22860000D01*
X6223000Y-22098000D02*
X6731000Y-22098000D01*
X5207000Y-23114000D02*
X6223000Y-22098000D01*
X10541000Y-22098000D02*
X6731000Y-22098000D01*
D12*
X9779000Y-20320000D02*
X10795000Y-20320000D01*
X9398000Y-20701000D02*
X9779000Y-20320000D01*
X17399000Y-24003000D02*
X13716000Y-20320000D01*
X13716000Y-20320000D02*
X9906000Y-20320000D01*
D13*
X15240000Y-18923000D02*
X8763000Y-18923000D01*
X15621000Y-19304000D02*
X15240000Y-18923000D01*
X6604000Y-18796000D02*
X6604000Y-18161000D01*
X4826000Y-20574000D02*
X6604000Y-18796000D01*
G36*
X2929500Y-16444800D02*
X2934152Y-16492249D01*
X2938477Y-16539765D01*
X2938979Y-16541469D01*
X2939152Y-16543238D01*
X2952930Y-16588874D01*
X2966403Y-16634651D01*
X2967227Y-16636228D01*
X2967740Y-16637926D01*
X2990108Y-16679994D01*
X3012228Y-16722305D01*
X3013342Y-16723691D01*
X3014176Y-16725259D01*
X3044311Y-16762208D01*
X3074205Y-16799389D01*
X3075566Y-16800531D01*
X3076690Y-16801909D01*
X3113427Y-16832300D01*
X3149975Y-16862968D01*
X3151534Y-16863825D01*
X3152901Y-16864956D01*
X3194796Y-16887608D01*
X3236650Y-16910618D01*
X3238346Y-16911156D01*
X3239907Y-16912000D01*
X3285453Y-16926099D01*
X3330930Y-16940525D01*
X3332695Y-16940723D01*
X3334394Y-16941249D01*
X3381849Y-16946237D01*
X3429224Y-16951551D01*
X3432635Y-16951575D01*
X3432762Y-16951588D01*
X3432890Y-16951576D01*
X3436300Y-16951600D01*
X18536300Y-16951600D01*
X18583749Y-16946948D01*
X18631265Y-16942623D01*
X18632969Y-16942121D01*
X18634738Y-16941948D01*
X18680374Y-16928170D01*
X18726151Y-16914697D01*
X18727728Y-16913873D01*
X18729426Y-16913360D01*
X18771494Y-16890992D01*
X18813805Y-16868872D01*
X18815191Y-16867758D01*
X18816759Y-16866924D01*
X18853708Y-16836789D01*
X18890889Y-16806895D01*
X18892031Y-16805534D01*
X18893409Y-16804410D01*
X18923800Y-16767673D01*
X18954468Y-16731125D01*
X18955325Y-16729566D01*
X18956456Y-16728199D01*
X18979108Y-16686304D01*
X19002118Y-16644450D01*
X19002656Y-16642754D01*
X19003500Y-16641193D01*
X19017599Y-16595647D01*
X19032025Y-16550170D01*
X19032223Y-16548405D01*
X19032749Y-16546706D01*
X19037737Y-16499251D01*
X19043051Y-16451876D01*
X19043075Y-16448465D01*
X19043088Y-16448338D01*
X19043076Y-16448210D01*
X19043100Y-16444800D01*
X19043100Y-551600D01*
X21529500Y-551600D01*
X21529500Y-17538000D01*
X19036300Y-17538000D01*
X18988851Y-17542652D01*
X18941335Y-17546977D01*
X18939631Y-17547479D01*
X18937862Y-17547652D01*
X18892226Y-17561430D01*
X18846449Y-17574903D01*
X18844872Y-17575727D01*
X18843174Y-17576240D01*
X18801106Y-17598608D01*
X18758795Y-17620728D01*
X18757409Y-17621842D01*
X18755841Y-17622676D01*
X18718892Y-17652811D01*
X18681711Y-17682705D01*
X18680569Y-17684066D01*
X18679191Y-17685190D01*
X18648800Y-17721927D01*
X18618132Y-17758475D01*
X18617275Y-17760034D01*
X18616144Y-17761401D01*
X18593492Y-17803296D01*
X18570482Y-17845150D01*
X18569944Y-17846846D01*
X18569100Y-17848407D01*
X18555001Y-17893953D01*
X18540575Y-17939430D01*
X18540377Y-17941195D01*
X18539851Y-17942894D01*
X18534863Y-17990349D01*
X18529549Y-18037724D01*
X18529525Y-18041135D01*
X18529512Y-18041262D01*
X18529524Y-18041390D01*
X18529500Y-18044800D01*
X18529500Y-25273000D01*
X3543100Y-25273000D01*
X3543100Y-23177003D01*
X4456715Y-23177003D01*
X4483241Y-23321535D01*
X4537335Y-23458161D01*
X4616937Y-23581678D01*
X4719014Y-23687382D01*
X4839678Y-23771246D01*
X4974333Y-23830075D01*
X5117851Y-23861630D01*
X5264764Y-23864707D01*
X5409477Y-23839190D01*
X5546477Y-23786051D01*
X5670548Y-23707314D01*
X5776961Y-23605977D01*
X5861665Y-23485902D01*
X5921433Y-23351660D01*
X5953989Y-23208367D01*
X5954713Y-23156549D01*
X6454462Y-22656800D01*
X10038932Y-22656800D01*
X10053014Y-22671382D01*
X10173678Y-22755246D01*
X10308333Y-22814075D01*
X10451851Y-22845630D01*
X10598764Y-22848707D01*
X10743477Y-22823190D01*
X10880477Y-22770051D01*
X11004548Y-22691314D01*
X11110961Y-22589977D01*
X11195665Y-22469902D01*
X11255433Y-22335660D01*
X11287989Y-22192367D01*
X11290333Y-22024527D01*
X11261791Y-21880380D01*
X11205794Y-21744523D01*
X11124476Y-21622129D01*
X11020933Y-21517861D01*
X10899110Y-21435690D01*
X10763646Y-21378746D01*
X10619702Y-21349199D01*
X10472760Y-21348173D01*
X10328418Y-21375708D01*
X10192172Y-21430754D01*
X10069214Y-21511216D01*
X10040637Y-21539200D01*
X6223000Y-21539200D01*
X6171586Y-21544241D01*
X6120209Y-21548736D01*
X6117390Y-21549555D01*
X6114462Y-21549842D01*
X6065030Y-21564767D01*
X6015480Y-21579162D01*
X6012870Y-21580515D01*
X6010058Y-21581364D01*
X5964503Y-21605586D01*
X5918656Y-21629351D01*
X5916359Y-21631185D01*
X5913765Y-21632564D01*
X5873780Y-21665175D01*
X5833424Y-21697390D01*
X5829337Y-21701421D01*
X5829250Y-21701492D01*
X5829183Y-21701573D01*
X5827869Y-21702869D01*
X5166372Y-22364366D01*
X5138760Y-22364173D01*
X4994418Y-22391708D01*
X4858172Y-22446754D01*
X4735214Y-22527216D01*
X4630225Y-22630028D01*
X4547206Y-22751275D01*
X4489318Y-22886338D01*
X4458766Y-23030072D01*
X4456715Y-23177003D01*
X3543100Y-23177003D01*
X3543100Y-20637003D01*
X4075715Y-20637003D01*
X4102241Y-20781535D01*
X4156335Y-20918161D01*
X4235937Y-21041678D01*
X4338014Y-21147382D01*
X4458678Y-21231246D01*
X4593333Y-21290075D01*
X4736851Y-21321630D01*
X4883764Y-21324707D01*
X5028477Y-21299190D01*
X5165477Y-21246051D01*
X5289548Y-21167314D01*
X5395961Y-21065977D01*
X5480665Y-20945902D01*
X5540433Y-20811660D01*
X5551260Y-20764003D01*
X8647715Y-20764003D01*
X8674241Y-20908535D01*
X8728335Y-21045161D01*
X8807937Y-21168678D01*
X8910014Y-21274382D01*
X9030678Y-21358246D01*
X9165333Y-21417075D01*
X9308851Y-21448630D01*
X9455764Y-21451707D01*
X9600477Y-21426190D01*
X9737477Y-21373051D01*
X9861548Y-21294314D01*
X9967961Y-21192977D01*
X10052665Y-21072902D01*
X10112433Y-20938660D01*
X10114491Y-20929600D01*
X13463496Y-20929600D01*
X13778925Y-21245030D01*
X13667702Y-21222199D01*
X13520760Y-21221173D01*
X13376418Y-21248708D01*
X13240172Y-21303754D01*
X13117214Y-21384216D01*
X13012225Y-21487028D01*
X12929206Y-21608275D01*
X12871318Y-21743338D01*
X12840766Y-21887072D01*
X12838715Y-22034003D01*
X12865241Y-22178535D01*
X12919335Y-22315161D01*
X12936281Y-22341456D01*
X12812940Y-22464798D01*
X12812868Y-22464869D01*
X11770372Y-23507366D01*
X11742760Y-23507173D01*
X11598418Y-23534708D01*
X11462172Y-23589754D01*
X11339214Y-23670216D01*
X11234225Y-23773028D01*
X11151206Y-23894275D01*
X11093318Y-24029338D01*
X11062766Y-24173072D01*
X11060715Y-24320003D01*
X11087241Y-24464535D01*
X11141335Y-24601161D01*
X11220937Y-24724678D01*
X11323014Y-24830382D01*
X11443678Y-24914246D01*
X11578333Y-24973075D01*
X11721851Y-25004630D01*
X11868764Y-25007707D01*
X12013477Y-24982190D01*
X12150477Y-24929051D01*
X12274548Y-24850314D01*
X12380961Y-24748977D01*
X12465665Y-24628902D01*
X12525433Y-24494660D01*
X12557989Y-24351367D01*
X12558713Y-24299550D01*
X13603131Y-23255132D01*
X13603136Y-23255126D01*
X13984131Y-22874132D01*
X14016923Y-22834210D01*
X14050073Y-22794704D01*
X14051487Y-22792132D01*
X14053354Y-22789859D01*
X14077733Y-22744392D01*
X14102613Y-22699135D01*
X14103503Y-22696328D01*
X14104889Y-22693744D01*
X14119956Y-22644462D01*
X14135589Y-22595181D01*
X14135917Y-22592258D01*
X14136775Y-22589451D01*
X14141988Y-22538137D01*
X14147746Y-22486802D01*
X14147786Y-22481061D01*
X14147797Y-22480950D01*
X14147787Y-22480847D01*
X14147800Y-22479000D01*
X14147800Y-22473606D01*
X14158961Y-22462977D01*
X14243665Y-22342902D01*
X14303433Y-22208660D01*
X14335989Y-22065367D01*
X14338333Y-21897527D01*
X14315350Y-21781454D01*
X16659688Y-24125793D01*
X16675241Y-24210535D01*
X16729335Y-24347161D01*
X16808937Y-24470678D01*
X16911014Y-24576382D01*
X17031678Y-24660246D01*
X17166333Y-24719075D01*
X17309851Y-24750630D01*
X17456764Y-24753707D01*
X17601477Y-24728190D01*
X17738477Y-24675051D01*
X17862548Y-24596314D01*
X17968961Y-24494977D01*
X18053665Y-24374902D01*
X18113433Y-24240660D01*
X18145989Y-24097367D01*
X18148333Y-23929527D01*
X18119791Y-23785380D01*
X18063794Y-23649523D01*
X17982476Y-23527129D01*
X17878933Y-23422861D01*
X17757110Y-23340690D01*
X17621646Y-23283746D01*
X17521241Y-23263136D01*
X14147052Y-19888948D01*
X14103569Y-19853230D01*
X14060404Y-19817011D01*
X14057595Y-19815467D01*
X14055118Y-19813432D01*
X14005499Y-19786826D01*
X13956147Y-19759695D01*
X13953090Y-19758725D01*
X13950266Y-19757211D01*
X13896447Y-19740757D01*
X13842743Y-19723721D01*
X13839555Y-19723363D01*
X13836492Y-19722427D01*
X13780527Y-19716742D01*
X13724511Y-19710459D01*
X13718242Y-19710416D01*
X13718128Y-19710404D01*
X13718022Y-19710414D01*
X13716000Y-19710400D01*
X9779000Y-19710400D01*
X9722971Y-19715894D01*
X9666863Y-19720803D01*
X9663785Y-19721697D01*
X9660595Y-19722010D01*
X9606700Y-19738282D01*
X9552614Y-19753995D01*
X9549767Y-19755471D01*
X9546699Y-19756397D01*
X9496965Y-19782841D01*
X9446988Y-19808747D01*
X9444485Y-19810745D01*
X9441653Y-19812251D01*
X9398052Y-19847811D01*
X9354007Y-19882971D01*
X9349541Y-19887376D01*
X9349455Y-19887446D01*
X9349389Y-19887526D01*
X9347947Y-19888948D01*
X9275341Y-19961554D01*
X9185418Y-19978708D01*
X9049172Y-20033754D01*
X8926214Y-20114216D01*
X8821225Y-20217028D01*
X8738206Y-20338275D01*
X8680318Y-20473338D01*
X8649766Y-20617072D01*
X8647715Y-20764003D01*
X5551260Y-20764003D01*
X5572989Y-20668367D01*
X5573713Y-20616549D01*
X6999131Y-19191131D01*
X7031884Y-19151257D01*
X7065073Y-19111704D01*
X7066489Y-19109129D01*
X7068354Y-19106858D01*
X7092740Y-19061378D01*
X7117613Y-19016135D01*
X7118502Y-19013333D01*
X7119890Y-19010744D01*
X7127454Y-18986003D01*
X8012715Y-18986003D01*
X8039241Y-19130535D01*
X8093335Y-19267161D01*
X8172937Y-19390678D01*
X8275014Y-19496382D01*
X8395678Y-19580246D01*
X8530333Y-19639075D01*
X8673851Y-19670630D01*
X8820764Y-19673707D01*
X8965477Y-19648190D01*
X9102477Y-19595051D01*
X9226548Y-19516314D01*
X9262791Y-19481800D01*
X14891784Y-19481800D01*
X14897241Y-19511535D01*
X14951335Y-19648161D01*
X15030937Y-19771678D01*
X15133014Y-19877382D01*
X15253678Y-19961246D01*
X15388333Y-20020075D01*
X15531851Y-20051630D01*
X15678764Y-20054707D01*
X15823477Y-20029190D01*
X15960477Y-19976051D01*
X16084548Y-19897314D01*
X16190961Y-19795977D01*
X16275665Y-19675902D01*
X16335433Y-19541660D01*
X16367989Y-19398367D01*
X16370333Y-19230527D01*
X16341791Y-19086380D01*
X16285794Y-18950523D01*
X16204476Y-18828129D01*
X16100933Y-18723861D01*
X15979110Y-18641690D01*
X15843646Y-18584746D01*
X15699702Y-18555199D01*
X15662199Y-18554937D01*
X15635131Y-18527869D01*
X15595257Y-18495116D01*
X15555704Y-18461927D01*
X15553129Y-18460511D01*
X15550858Y-18458646D01*
X15505378Y-18434260D01*
X15460135Y-18409387D01*
X15457333Y-18408498D01*
X15454744Y-18407110D01*
X15405416Y-18392029D01*
X15356181Y-18376411D01*
X15353258Y-18376083D01*
X15350451Y-18375225D01*
X15299137Y-18370012D01*
X15247802Y-18364254D01*
X15242061Y-18364214D01*
X15241950Y-18364203D01*
X15241847Y-18364213D01*
X15240000Y-18364200D01*
X9264124Y-18364200D01*
X9242933Y-18342861D01*
X9121110Y-18260690D01*
X8985646Y-18203746D01*
X8841702Y-18174199D01*
X8694760Y-18173173D01*
X8550418Y-18200708D01*
X8414172Y-18255754D01*
X8291214Y-18336216D01*
X8186225Y-18439028D01*
X8103206Y-18560275D01*
X8045318Y-18695338D01*
X8014766Y-18839072D01*
X8012715Y-18986003D01*
X7127454Y-18986003D01*
X7134971Y-18961416D01*
X7150589Y-18912181D01*
X7150917Y-18909258D01*
X7151775Y-18906451D01*
X7156988Y-18855137D01*
X7162746Y-18803802D01*
X7162786Y-18798061D01*
X7162797Y-18797950D01*
X7162787Y-18797847D01*
X7162800Y-18796000D01*
X7162800Y-18663606D01*
X7173961Y-18652977D01*
X7258665Y-18532902D01*
X7318433Y-18398660D01*
X7350989Y-18255367D01*
X7353333Y-18087527D01*
X7324791Y-17943380D01*
X7268794Y-17807523D01*
X7187476Y-17685129D01*
X7083933Y-17580861D01*
X6962110Y-17498690D01*
X6826646Y-17441746D01*
X6682702Y-17412199D01*
X6535760Y-17411173D01*
X6391418Y-17438708D01*
X6255172Y-17493754D01*
X6132214Y-17574216D01*
X6027225Y-17677028D01*
X5944206Y-17798275D01*
X5886318Y-17933338D01*
X5855766Y-18077072D01*
X5853715Y-18224003D01*
X5880241Y-18368535D01*
X5934335Y-18505161D01*
X6001053Y-18608685D01*
X4785372Y-19824366D01*
X4757760Y-19824173D01*
X4613418Y-19851708D01*
X4477172Y-19906754D01*
X4354214Y-19987216D01*
X4249225Y-20090028D01*
X4166206Y-20211275D01*
X4108318Y-20346338D01*
X4077766Y-20490072D01*
X4075715Y-20637003D01*
X3543100Y-20637003D01*
X3543100Y-18044800D01*
X3538448Y-17997351D01*
X3534123Y-17949835D01*
X3533621Y-17948131D01*
X3533448Y-17946362D01*
X3519670Y-17900726D01*
X3506197Y-17854949D01*
X3505373Y-17853372D01*
X3504860Y-17851674D01*
X3482492Y-17809606D01*
X3460372Y-17767295D01*
X3459258Y-17765909D01*
X3458424Y-17764341D01*
X3428289Y-17727392D01*
X3398395Y-17690211D01*
X3397034Y-17689069D01*
X3395910Y-17687691D01*
X3359173Y-17657300D01*
X3322625Y-17626632D01*
X3321066Y-17625775D01*
X3319699Y-17624644D01*
X3277804Y-17601992D01*
X3235950Y-17578982D01*
X3234254Y-17578444D01*
X3232693Y-17577600D01*
X3187147Y-17563501D01*
X3141670Y-17549075D01*
X3139905Y-17548877D01*
X3138206Y-17548351D01*
X3090751Y-17543363D01*
X3043376Y-17538049D01*
X3039965Y-17538025D01*
X3039838Y-17538012D01*
X3039710Y-17538024D01*
X3036300Y-17538000D01*
X543100Y-17538000D01*
X543100Y-551600D01*
X2929500Y-551600D01*
X2929500Y-16444800D01*
X2929500Y-16444800D01*
G37*
X2929500Y-16444800D02*
X2934152Y-16492249D01*
X2938477Y-16539765D01*
X2938979Y-16541469D01*
X2939152Y-16543238D01*
X2952930Y-16588874D01*
X2966403Y-16634651D01*
X2967227Y-16636228D01*
X2967740Y-16637926D01*
X2990108Y-16679994D01*
X3012228Y-16722305D01*
X3013342Y-16723691D01*
X3014176Y-16725259D01*
X3044311Y-16762208D01*
X3074205Y-16799389D01*
X3075566Y-16800531D01*
X3076690Y-16801909D01*
X3113427Y-16832300D01*
X3149975Y-16862968D01*
X3151534Y-16863825D01*
X3152901Y-16864956D01*
X3194796Y-16887608D01*
X3236650Y-16910618D01*
X3238346Y-16911156D01*
X3239907Y-16912000D01*
X3285453Y-16926099D01*
X3330930Y-16940525D01*
X3332695Y-16940723D01*
X3334394Y-16941249D01*
X3381849Y-16946237D01*
X3429224Y-16951551D01*
X3432635Y-16951575D01*
X3432762Y-16951588D01*
X3432890Y-16951576D01*
X3436300Y-16951600D01*
X18536300Y-16951600D01*
X18583749Y-16946948D01*
X18631265Y-16942623D01*
X18632969Y-16942121D01*
X18634738Y-16941948D01*
X18680374Y-16928170D01*
X18726151Y-16914697D01*
X18727728Y-16913873D01*
X18729426Y-16913360D01*
X18771494Y-16890992D01*
X18813805Y-16868872D01*
X18815191Y-16867758D01*
X18816759Y-16866924D01*
X18853708Y-16836789D01*
X18890889Y-16806895D01*
X18892031Y-16805534D01*
X18893409Y-16804410D01*
X18923800Y-16767673D01*
X18954468Y-16731125D01*
X18955325Y-16729566D01*
X18956456Y-16728199D01*
X18979108Y-16686304D01*
X19002118Y-16644450D01*
X19002656Y-16642754D01*
X19003500Y-16641193D01*
X19017599Y-16595647D01*
X19032025Y-16550170D01*
X19032223Y-16548405D01*
X19032749Y-16546706D01*
X19037737Y-16499251D01*
X19043051Y-16451876D01*
X19043075Y-16448465D01*
X19043088Y-16448338D01*
X19043076Y-16448210D01*
X19043100Y-16444800D01*
X19043100Y-551600D01*
X21529500Y-551600D01*
X21529500Y-17538000D01*
X19036300Y-17538000D01*
X18988851Y-17542652D01*
X18941335Y-17546977D01*
X18939631Y-17547479D01*
X18937862Y-17547652D01*
X18892226Y-17561430D01*
X18846449Y-17574903D01*
X18844872Y-17575727D01*
X18843174Y-17576240D01*
X18801106Y-17598608D01*
X18758795Y-17620728D01*
X18757409Y-17621842D01*
X18755841Y-17622676D01*
X18718892Y-17652811D01*
X18681711Y-17682705D01*
X18680569Y-17684066D01*
X18679191Y-17685190D01*
X18648800Y-17721927D01*
X18618132Y-17758475D01*
X18617275Y-17760034D01*
X18616144Y-17761401D01*
X18593492Y-17803296D01*
X18570482Y-17845150D01*
X18569944Y-17846846D01*
X18569100Y-17848407D01*
X18555001Y-17893953D01*
X18540575Y-17939430D01*
X18540377Y-17941195D01*
X18539851Y-17942894D01*
X18534863Y-17990349D01*
X18529549Y-18037724D01*
X18529525Y-18041135D01*
X18529512Y-18041262D01*
X18529524Y-18041390D01*
X18529500Y-18044800D01*
X18529500Y-25273000D01*
X3543100Y-25273000D01*
X3543100Y-23177003D01*
X4456715Y-23177003D01*
X4483241Y-23321535D01*
X4537335Y-23458161D01*
X4616937Y-23581678D01*
X4719014Y-23687382D01*
X4839678Y-23771246D01*
X4974333Y-23830075D01*
X5117851Y-23861630D01*
X5264764Y-23864707D01*
X5409477Y-23839190D01*
X5546477Y-23786051D01*
X5670548Y-23707314D01*
X5776961Y-23605977D01*
X5861665Y-23485902D01*
X5921433Y-23351660D01*
X5953989Y-23208367D01*
X5954713Y-23156549D01*
X6454462Y-22656800D01*
X10038932Y-22656800D01*
X10053014Y-22671382D01*
X10173678Y-22755246D01*
X10308333Y-22814075D01*
X10451851Y-22845630D01*
X10598764Y-22848707D01*
X10743477Y-22823190D01*
X10880477Y-22770051D01*
X11004548Y-22691314D01*
X11110961Y-22589977D01*
X11195665Y-22469902D01*
X11255433Y-22335660D01*
X11287989Y-22192367D01*
X11290333Y-22024527D01*
X11261791Y-21880380D01*
X11205794Y-21744523D01*
X11124476Y-21622129D01*
X11020933Y-21517861D01*
X10899110Y-21435690D01*
X10763646Y-21378746D01*
X10619702Y-21349199D01*
X10472760Y-21348173D01*
X10328418Y-21375708D01*
X10192172Y-21430754D01*
X10069214Y-21511216D01*
X10040637Y-21539200D01*
X6223000Y-21539200D01*
X6171586Y-21544241D01*
X6120209Y-21548736D01*
X6117390Y-21549555D01*
X6114462Y-21549842D01*
X6065030Y-21564767D01*
X6015480Y-21579162D01*
X6012870Y-21580515D01*
X6010058Y-21581364D01*
X5964503Y-21605586D01*
X5918656Y-21629351D01*
X5916359Y-21631185D01*
X5913765Y-21632564D01*
X5873780Y-21665175D01*
X5833424Y-21697390D01*
X5829337Y-21701421D01*
X5829250Y-21701492D01*
X5829183Y-21701573D01*
X5827869Y-21702869D01*
X5166372Y-22364366D01*
X5138760Y-22364173D01*
X4994418Y-22391708D01*
X4858172Y-22446754D01*
X4735214Y-22527216D01*
X4630225Y-22630028D01*
X4547206Y-22751275D01*
X4489318Y-22886338D01*
X4458766Y-23030072D01*
X4456715Y-23177003D01*
X3543100Y-23177003D01*
X3543100Y-20637003D01*
X4075715Y-20637003D01*
X4102241Y-20781535D01*
X4156335Y-20918161D01*
X4235937Y-21041678D01*
X4338014Y-21147382D01*
X4458678Y-21231246D01*
X4593333Y-21290075D01*
X4736851Y-21321630D01*
X4883764Y-21324707D01*
X5028477Y-21299190D01*
X5165477Y-21246051D01*
X5289548Y-21167314D01*
X5395961Y-21065977D01*
X5480665Y-20945902D01*
X5540433Y-20811660D01*
X5551260Y-20764003D01*
X8647715Y-20764003D01*
X8674241Y-20908535D01*
X8728335Y-21045161D01*
X8807937Y-21168678D01*
X8910014Y-21274382D01*
X9030678Y-21358246D01*
X9165333Y-21417075D01*
X9308851Y-21448630D01*
X9455764Y-21451707D01*
X9600477Y-21426190D01*
X9737477Y-21373051D01*
X9861548Y-21294314D01*
X9967961Y-21192977D01*
X10052665Y-21072902D01*
X10112433Y-20938660D01*
X10114491Y-20929600D01*
X13463496Y-20929600D01*
X13778925Y-21245030D01*
X13667702Y-21222199D01*
X13520760Y-21221173D01*
X13376418Y-21248708D01*
X13240172Y-21303754D01*
X13117214Y-21384216D01*
X13012225Y-21487028D01*
X12929206Y-21608275D01*
X12871318Y-21743338D01*
X12840766Y-21887072D01*
X12838715Y-22034003D01*
X12865241Y-22178535D01*
X12919335Y-22315161D01*
X12936281Y-22341456D01*
X12812940Y-22464798D01*
X12812868Y-22464869D01*
X11770372Y-23507366D01*
X11742760Y-23507173D01*
X11598418Y-23534708D01*
X11462172Y-23589754D01*
X11339214Y-23670216D01*
X11234225Y-23773028D01*
X11151206Y-23894275D01*
X11093318Y-24029338D01*
X11062766Y-24173072D01*
X11060715Y-24320003D01*
X11087241Y-24464535D01*
X11141335Y-24601161D01*
X11220937Y-24724678D01*
X11323014Y-24830382D01*
X11443678Y-24914246D01*
X11578333Y-24973075D01*
X11721851Y-25004630D01*
X11868764Y-25007707D01*
X12013477Y-24982190D01*
X12150477Y-24929051D01*
X12274548Y-24850314D01*
X12380961Y-24748977D01*
X12465665Y-24628902D01*
X12525433Y-24494660D01*
X12557989Y-24351367D01*
X12558713Y-24299550D01*
X13603131Y-23255132D01*
X13603136Y-23255126D01*
X13984131Y-22874132D01*
X14016923Y-22834210D01*
X14050073Y-22794704D01*
X14051487Y-22792132D01*
X14053354Y-22789859D01*
X14077733Y-22744392D01*
X14102613Y-22699135D01*
X14103503Y-22696328D01*
X14104889Y-22693744D01*
X14119956Y-22644462D01*
X14135589Y-22595181D01*
X14135917Y-22592258D01*
X14136775Y-22589451D01*
X14141988Y-22538137D01*
X14147746Y-22486802D01*
X14147786Y-22481061D01*
X14147797Y-22480950D01*
X14147787Y-22480847D01*
X14147800Y-22479000D01*
X14147800Y-22473606D01*
X14158961Y-22462977D01*
X14243665Y-22342902D01*
X14303433Y-22208660D01*
X14335989Y-22065367D01*
X14338333Y-21897527D01*
X14315350Y-21781454D01*
X16659688Y-24125793D01*
X16675241Y-24210535D01*
X16729335Y-24347161D01*
X16808937Y-24470678D01*
X16911014Y-24576382D01*
X17031678Y-24660246D01*
X17166333Y-24719075D01*
X17309851Y-24750630D01*
X17456764Y-24753707D01*
X17601477Y-24728190D01*
X17738477Y-24675051D01*
X17862548Y-24596314D01*
X17968961Y-24494977D01*
X18053665Y-24374902D01*
X18113433Y-24240660D01*
X18145989Y-24097367D01*
X18148333Y-23929527D01*
X18119791Y-23785380D01*
X18063794Y-23649523D01*
X17982476Y-23527129D01*
X17878933Y-23422861D01*
X17757110Y-23340690D01*
X17621646Y-23283746D01*
X17521241Y-23263136D01*
X14147052Y-19888948D01*
X14103569Y-19853230D01*
X14060404Y-19817011D01*
X14057595Y-19815467D01*
X14055118Y-19813432D01*
X14005499Y-19786826D01*
X13956147Y-19759695D01*
X13953090Y-19758725D01*
X13950266Y-19757211D01*
X13896447Y-19740757D01*
X13842743Y-19723721D01*
X13839555Y-19723363D01*
X13836492Y-19722427D01*
X13780527Y-19716742D01*
X13724511Y-19710459D01*
X13718242Y-19710416D01*
X13718128Y-19710404D01*
X13718022Y-19710414D01*
X13716000Y-19710400D01*
X9779000Y-19710400D01*
X9722971Y-19715894D01*
X9666863Y-19720803D01*
X9663785Y-19721697D01*
X9660595Y-19722010D01*
X9606700Y-19738282D01*
X9552614Y-19753995D01*
X9549767Y-19755471D01*
X9546699Y-19756397D01*
X9496965Y-19782841D01*
X9446988Y-19808747D01*
X9444485Y-19810745D01*
X9441653Y-19812251D01*
X9398052Y-19847811D01*
X9354007Y-19882971D01*
X9349541Y-19887376D01*
X9349455Y-19887446D01*
X9349389Y-19887526D01*
X9347947Y-19888948D01*
X9275341Y-19961554D01*
X9185418Y-19978708D01*
X9049172Y-20033754D01*
X8926214Y-20114216D01*
X8821225Y-20217028D01*
X8738206Y-20338275D01*
X8680318Y-20473338D01*
X8649766Y-20617072D01*
X8647715Y-20764003D01*
X5551260Y-20764003D01*
X5572989Y-20668367D01*
X5573713Y-20616549D01*
X6999131Y-19191131D01*
X7031884Y-19151257D01*
X7065073Y-19111704D01*
X7066489Y-19109129D01*
X7068354Y-19106858D01*
X7092740Y-19061378D01*
X7117613Y-19016135D01*
X7118502Y-19013333D01*
X7119890Y-19010744D01*
X7127454Y-18986003D01*
X8012715Y-18986003D01*
X8039241Y-19130535D01*
X8093335Y-19267161D01*
X8172937Y-19390678D01*
X8275014Y-19496382D01*
X8395678Y-19580246D01*
X8530333Y-19639075D01*
X8673851Y-19670630D01*
X8820764Y-19673707D01*
X8965477Y-19648190D01*
X9102477Y-19595051D01*
X9226548Y-19516314D01*
X9262791Y-19481800D01*
X14891784Y-19481800D01*
X14897241Y-19511535D01*
X14951335Y-19648161D01*
X15030937Y-19771678D01*
X15133014Y-19877382D01*
X15253678Y-19961246D01*
X15388333Y-20020075D01*
X15531851Y-20051630D01*
X15678764Y-20054707D01*
X15823477Y-20029190D01*
X15960477Y-19976051D01*
X16084548Y-19897314D01*
X16190961Y-19795977D01*
X16275665Y-19675902D01*
X16335433Y-19541660D01*
X16367989Y-19398367D01*
X16370333Y-19230527D01*
X16341791Y-19086380D01*
X16285794Y-18950523D01*
X16204476Y-18828129D01*
X16100933Y-18723861D01*
X15979110Y-18641690D01*
X15843646Y-18584746D01*
X15699702Y-18555199D01*
X15662199Y-18554937D01*
X15635131Y-18527869D01*
X15595257Y-18495116D01*
X15555704Y-18461927D01*
X15553129Y-18460511D01*
X15550858Y-18458646D01*
X15505378Y-18434260D01*
X15460135Y-18409387D01*
X15457333Y-18408498D01*
X15454744Y-18407110D01*
X15405416Y-18392029D01*
X15356181Y-18376411D01*
X15353258Y-18376083D01*
X15350451Y-18375225D01*
X15299137Y-18370012D01*
X15247802Y-18364254D01*
X15242061Y-18364214D01*
X15241950Y-18364203D01*
X15241847Y-18364213D01*
X15240000Y-18364200D01*
X9264124Y-18364200D01*
X9242933Y-18342861D01*
X9121110Y-18260690D01*
X8985646Y-18203746D01*
X8841702Y-18174199D01*
X8694760Y-18173173D01*
X8550418Y-18200708D01*
X8414172Y-18255754D01*
X8291214Y-18336216D01*
X8186225Y-18439028D01*
X8103206Y-18560275D01*
X8045318Y-18695338D01*
X8014766Y-18839072D01*
X8012715Y-18986003D01*
X7127454Y-18986003D01*
X7134971Y-18961416D01*
X7150589Y-18912181D01*
X7150917Y-18909258D01*
X7151775Y-18906451D01*
X7156988Y-18855137D01*
X7162746Y-18803802D01*
X7162786Y-18798061D01*
X7162797Y-18797950D01*
X7162787Y-18797847D01*
X7162800Y-18796000D01*
X7162800Y-18663606D01*
X7173961Y-18652977D01*
X7258665Y-18532902D01*
X7318433Y-18398660D01*
X7350989Y-18255367D01*
X7353333Y-18087527D01*
X7324791Y-17943380D01*
X7268794Y-17807523D01*
X7187476Y-17685129D01*
X7083933Y-17580861D01*
X6962110Y-17498690D01*
X6826646Y-17441746D01*
X6682702Y-17412199D01*
X6535760Y-17411173D01*
X6391418Y-17438708D01*
X6255172Y-17493754D01*
X6132214Y-17574216D01*
X6027225Y-17677028D01*
X5944206Y-17798275D01*
X5886318Y-17933338D01*
X5855766Y-18077072D01*
X5853715Y-18224003D01*
X5880241Y-18368535D01*
X5934335Y-18505161D01*
X6001053Y-18608685D01*
X4785372Y-19824366D01*
X4757760Y-19824173D01*
X4613418Y-19851708D01*
X4477172Y-19906754D01*
X4354214Y-19987216D01*
X4249225Y-20090028D01*
X4166206Y-20211275D01*
X4108318Y-20346338D01*
X4077766Y-20490072D01*
X4075715Y-20637003D01*
X3543100Y-20637003D01*
X3543100Y-18044800D01*
X3538448Y-17997351D01*
X3534123Y-17949835D01*
X3533621Y-17948131D01*
X3533448Y-17946362D01*
X3519670Y-17900726D01*
X3506197Y-17854949D01*
X3505373Y-17853372D01*
X3504860Y-17851674D01*
X3482492Y-17809606D01*
X3460372Y-17767295D01*
X3459258Y-17765909D01*
X3458424Y-17764341D01*
X3428289Y-17727392D01*
X3398395Y-17690211D01*
X3397034Y-17689069D01*
X3395910Y-17687691D01*
X3359173Y-17657300D01*
X3322625Y-17626632D01*
X3321066Y-17625775D01*
X3319699Y-17624644D01*
X3277804Y-17601992D01*
X3235950Y-17578982D01*
X3234254Y-17578444D01*
X3232693Y-17577600D01*
X3187147Y-17563501D01*
X3141670Y-17549075D01*
X3139905Y-17548877D01*
X3138206Y-17548351D01*
X3090751Y-17543363D01*
X3043376Y-17538049D01*
X3039965Y-17538025D01*
X3039838Y-17538012D01*
X3039710Y-17538024D01*
X3036300Y-17538000D01*
X543100Y-17538000D01*
X543100Y-551600D01*
X2929500Y-551600D01*
X2929500Y-16444800D01*
M02*
