G75*
%MOIN*%
%OFA0B0*%
%FSLAX25Y25*%
%IPPOS*%
%LPD*%
%AMOC8*
5,1,8,0,0,1.08239X$1,22.5*
%
%ADD10R,0.05512X0.07874*%
%ADD11R,0.05039X0.05512*%
%ADD12R,0.02756X0.05512*%
%ADD13R,0.04626X0.19685*%
%ADD14C,0.07874*%
%ADD15C,0.01000*%
%ADD16C,0.04165*%
D10*
X0013469Y0099177D03*
X0075673Y0099177D03*
D11*
X0013232Y0061382D03*
D12*
X0018587Y0056854D03*
X0022917Y0056854D03*
X0027248Y0056854D03*
X0031579Y0056854D03*
X0035909Y0056854D03*
X0040240Y0056854D03*
X0044571Y0056854D03*
X0048902Y0056854D03*
X0053232Y0056854D03*
D13*
X0053222Y0012406D03*
X0047612Y0012406D03*
X0042002Y0012406D03*
X0036392Y0012406D03*
X0030781Y0012406D03*
X0025171Y0012406D03*
X0019561Y0012406D03*
X0058833Y0012406D03*
X0064443Y0012406D03*
X0070053Y0012406D03*
D14*
X0070791Y0040870D03*
X0065280Y0051106D03*
X0018823Y0047169D03*
X0018823Y0034571D03*
D15*
X0015405Y0030334D02*
X0015405Y0003594D01*
X0015748Y0003594D01*
X0015748Y0011906D01*
X0019061Y0011906D01*
X0019061Y0012905D01*
X0015748Y0012905D01*
X0015748Y0022446D01*
X0015850Y0022827D01*
X0016048Y0023169D01*
X0016327Y0023448D01*
X0016669Y0023646D01*
X0017051Y0023748D01*
X0019061Y0023748D01*
X0019061Y0012906D01*
X0020061Y0012906D01*
X0020061Y0023748D01*
X0021954Y0023748D01*
X0022154Y0023948D01*
X0022380Y0023948D01*
X0022347Y0024601D01*
X0022391Y0024649D01*
X0022391Y0024714D01*
X0022914Y0025238D01*
X0022914Y0026662D01*
X0023490Y0028052D01*
X0024554Y0029116D01*
X0025944Y0029692D01*
X0027449Y0029692D01*
X0028840Y0029116D01*
X0029904Y0028052D01*
X0030480Y0026662D01*
X0030480Y0025157D01*
X0029904Y0023767D01*
X0029885Y0023748D01*
X0030282Y0023748D01*
X0030282Y0012906D01*
X0031281Y0012906D01*
X0031281Y0023748D01*
X0033175Y0023748D01*
X0033375Y0023948D01*
X0033846Y0023948D01*
X0033835Y0024322D01*
X0027762Y0030394D01*
X0026338Y0030394D01*
X0024948Y0030970D01*
X0023884Y0032034D01*
X0023771Y0032306D01*
X0023473Y0031721D01*
X0022970Y0031029D01*
X0022365Y0030424D01*
X0021672Y0029921D01*
X0020910Y0029532D01*
X0020096Y0029268D01*
X0019323Y0029145D01*
X0019323Y0034071D01*
X0018323Y0034071D01*
X0018323Y0029145D01*
X0017550Y0029268D01*
X0016736Y0029532D01*
X0015973Y0029921D01*
X0015405Y0030334D01*
X0015405Y0029686D02*
X0016434Y0029686D01*
X0015405Y0028687D02*
X0024125Y0028687D01*
X0023340Y0027689D02*
X0015405Y0027689D01*
X0015405Y0026690D02*
X0022926Y0026690D01*
X0022914Y0025692D02*
X0015405Y0025692D01*
X0015405Y0024693D02*
X0022391Y0024693D01*
X0020061Y0023695D02*
X0019061Y0023695D01*
X0019061Y0022696D02*
X0020061Y0022696D01*
X0020061Y0021698D02*
X0019061Y0021698D01*
X0019061Y0020699D02*
X0020061Y0020699D01*
X0020061Y0019701D02*
X0019061Y0019701D01*
X0019061Y0018702D02*
X0020061Y0018702D01*
X0020061Y0017704D02*
X0019061Y0017704D01*
X0019061Y0016705D02*
X0020061Y0016705D01*
X0020061Y0015707D02*
X0019061Y0015707D01*
X0019061Y0014708D02*
X0020061Y0014708D01*
X0020061Y0013710D02*
X0019061Y0013710D01*
X0019061Y0012711D02*
X0015405Y0012711D01*
X0015405Y0011713D02*
X0015748Y0011713D01*
X0015748Y0010714D02*
X0015405Y0010714D01*
X0015405Y0009716D02*
X0015748Y0009716D01*
X0015748Y0008717D02*
X0015405Y0008717D01*
X0015405Y0007719D02*
X0015748Y0007719D01*
X0015748Y0006720D02*
X0015405Y0006720D01*
X0015405Y0005721D02*
X0015748Y0005721D01*
X0015748Y0004723D02*
X0015405Y0004723D01*
X0015405Y0003724D02*
X0015748Y0003724D01*
X0015748Y0013710D02*
X0015405Y0013710D01*
X0015405Y0014708D02*
X0015748Y0014708D01*
X0015748Y0015707D02*
X0015405Y0015707D01*
X0015405Y0016705D02*
X0015748Y0016705D01*
X0015748Y0017704D02*
X0015405Y0017704D01*
X0015405Y0018702D02*
X0015748Y0018702D01*
X0015748Y0019701D02*
X0015405Y0019701D01*
X0015405Y0020699D02*
X0015748Y0020699D01*
X0015748Y0021698D02*
X0015405Y0021698D01*
X0015405Y0022696D02*
X0015815Y0022696D01*
X0015405Y0023695D02*
X0016852Y0023695D01*
X0018323Y0029686D02*
X0019323Y0029686D01*
X0019323Y0030684D02*
X0018323Y0030684D01*
X0018323Y0031683D02*
X0019323Y0031683D01*
X0019323Y0032681D02*
X0018323Y0032681D01*
X0018323Y0033680D02*
X0019323Y0033680D01*
X0019323Y0035071D02*
X0018323Y0035071D01*
X0018323Y0039996D01*
X0017550Y0039874D01*
X0016736Y0039610D01*
X0015973Y0039221D01*
X0015405Y0038808D01*
X0015405Y0042615D01*
X0015630Y0042390D01*
X0017702Y0041532D01*
X0019944Y0041532D01*
X0022016Y0042390D01*
X0022434Y0042809D01*
X0022636Y0042607D01*
X0027283Y0037960D01*
X0026338Y0037960D01*
X0024948Y0037384D01*
X0023950Y0036386D01*
X0023861Y0036658D01*
X0023473Y0037420D01*
X0022970Y0038113D01*
X0022365Y0038718D01*
X0021672Y0039221D01*
X0020910Y0039610D01*
X0020096Y0039874D01*
X0019323Y0039996D01*
X0019323Y0035071D01*
X0019323Y0035677D02*
X0018323Y0035677D01*
X0018323Y0036675D02*
X0019323Y0036675D01*
X0019323Y0037674D02*
X0018323Y0037674D01*
X0018323Y0038672D02*
X0019323Y0038672D01*
X0019323Y0039671D02*
X0018323Y0039671D01*
X0016925Y0039671D02*
X0015405Y0039671D01*
X0015405Y0040669D02*
X0024574Y0040669D01*
X0025572Y0039671D02*
X0020721Y0039671D01*
X0022410Y0038672D02*
X0026571Y0038672D01*
X0025648Y0037674D02*
X0023289Y0037674D01*
X0023853Y0036675D02*
X0024239Y0036675D01*
X0027091Y0034177D02*
X0036008Y0025260D01*
X0036392Y0012406D01*
X0031281Y0013710D02*
X0030282Y0013710D01*
X0030282Y0014708D02*
X0031281Y0014708D01*
X0031281Y0015707D02*
X0030282Y0015707D01*
X0030282Y0016705D02*
X0031281Y0016705D01*
X0031281Y0017704D02*
X0030282Y0017704D01*
X0030282Y0018702D02*
X0031281Y0018702D01*
X0031281Y0019701D02*
X0030282Y0019701D01*
X0030282Y0020699D02*
X0031281Y0020699D01*
X0031281Y0021698D02*
X0030282Y0021698D01*
X0030282Y0022696D02*
X0031281Y0022696D01*
X0031281Y0023695D02*
X0030282Y0023695D01*
X0030287Y0024693D02*
X0033463Y0024693D01*
X0032465Y0025692D02*
X0030480Y0025692D01*
X0030468Y0026690D02*
X0031466Y0026690D01*
X0030468Y0027689D02*
X0030054Y0027689D01*
X0029469Y0028687D02*
X0029269Y0028687D01*
X0028471Y0029686D02*
X0027465Y0029686D01*
X0025929Y0029686D02*
X0021211Y0029686D01*
X0022625Y0030684D02*
X0025639Y0030684D01*
X0024235Y0031683D02*
X0023445Y0031683D01*
X0026697Y0025909D02*
X0024591Y0023803D01*
X0025171Y0012406D01*
X0042002Y0012406D02*
X0041717Y0026638D01*
X0023547Y0044807D01*
X0023547Y0047169D01*
X0018823Y0047169D01*
X0022292Y0042666D02*
X0022577Y0042666D01*
X0023575Y0041668D02*
X0020271Y0041668D01*
X0017374Y0041668D02*
X0015405Y0041668D01*
X0015405Y0051723D02*
X0015405Y0051814D01*
X0015405Y0053548D01*
X0014178Y0054775D01*
X0003594Y0054775D01*
X0003594Y0121454D01*
X0012792Y0121454D01*
X0012792Y0104614D01*
X0010515Y0104614D01*
X0010134Y0104512D01*
X0009792Y0104314D01*
X0009512Y0104035D01*
X0009315Y0103693D01*
X0009213Y0103312D01*
X0009213Y0099677D01*
X0012792Y0099677D01*
X0012792Y0098677D01*
X0009213Y0098677D01*
X0009213Y0095043D01*
X0009315Y0094661D01*
X0009512Y0094319D01*
X0009792Y0094040D01*
X0010134Y0093842D01*
X0010515Y0093740D01*
X0012792Y0093740D01*
X0012792Y0061882D01*
X0012732Y0061882D01*
X0012732Y0060882D01*
X0009213Y0060882D01*
X0009213Y0058428D01*
X0009315Y0058047D01*
X0009512Y0057705D01*
X0009792Y0057426D01*
X0010134Y0057228D01*
X0010515Y0057126D01*
X0012732Y0057126D01*
X0012732Y0060882D01*
X0012792Y0060882D01*
X0012792Y0058113D01*
X0013732Y0057173D01*
X0013732Y0057126D01*
X0013779Y0057126D01*
X0014019Y0056887D01*
X0015509Y0056887D01*
X0015509Y0053394D01*
X0016504Y0052398D01*
X0016717Y0052398D01*
X0015630Y0051948D01*
X0015405Y0051723D01*
X0015405Y0052652D02*
X0016251Y0052652D01*
X0015509Y0053650D02*
X0015303Y0053650D01*
X0015509Y0054649D02*
X0014305Y0054649D01*
X0015509Y0055647D02*
X0003594Y0055647D01*
X0003594Y0056646D02*
X0015509Y0056646D01*
X0013261Y0057644D02*
X0012732Y0057644D01*
X0012732Y0058643D02*
X0012792Y0058643D01*
X0012792Y0059641D02*
X0012732Y0059641D01*
X0012732Y0060640D02*
X0012792Y0060640D01*
X0012732Y0061638D02*
X0003594Y0061638D01*
X0003594Y0060640D02*
X0009213Y0060640D01*
X0009213Y0059641D02*
X0003594Y0059641D01*
X0003594Y0058643D02*
X0009213Y0058643D01*
X0009573Y0057644D02*
X0003594Y0057644D01*
X0003594Y0062637D02*
X0009213Y0062637D01*
X0009213Y0061882D02*
X0012732Y0061882D01*
X0012732Y0065638D01*
X0010515Y0065638D01*
X0010134Y0065536D01*
X0009792Y0065338D01*
X0009512Y0065059D01*
X0009315Y0064717D01*
X0009213Y0064335D01*
X0009213Y0061882D01*
X0009213Y0063635D02*
X0003594Y0063635D01*
X0003594Y0064634D02*
X0009293Y0064634D01*
X0010494Y0065632D02*
X0003594Y0065632D01*
X0003594Y0066631D02*
X0012792Y0066631D01*
X0012792Y0067629D02*
X0003594Y0067629D01*
X0003594Y0068628D02*
X0012792Y0068628D01*
X0012792Y0069626D02*
X0003594Y0069626D01*
X0003594Y0070625D02*
X0012792Y0070625D01*
X0012792Y0071623D02*
X0003594Y0071623D01*
X0003594Y0072622D02*
X0012792Y0072622D01*
X0012792Y0073620D02*
X0003594Y0073620D01*
X0003594Y0074619D02*
X0012792Y0074619D01*
X0012792Y0075617D02*
X0003594Y0075617D01*
X0003594Y0076616D02*
X0012792Y0076616D01*
X0012792Y0077614D02*
X0003594Y0077614D01*
X0003594Y0078613D02*
X0012792Y0078613D01*
X0012792Y0079611D02*
X0003594Y0079611D01*
X0003594Y0080610D02*
X0012792Y0080610D01*
X0012792Y0081608D02*
X0003594Y0081608D01*
X0003594Y0082607D02*
X0012792Y0082607D01*
X0012792Y0083605D02*
X0003594Y0083605D01*
X0003594Y0084604D02*
X0012792Y0084604D01*
X0012792Y0085602D02*
X0003594Y0085602D01*
X0003594Y0086601D02*
X0012792Y0086601D01*
X0012792Y0087599D02*
X0003594Y0087599D01*
X0003594Y0088598D02*
X0012792Y0088598D01*
X0012792Y0089596D02*
X0003594Y0089596D01*
X0003594Y0090595D02*
X0012792Y0090595D01*
X0012792Y0091593D02*
X0003594Y0091593D01*
X0003594Y0092592D02*
X0012792Y0092592D01*
X0012792Y0093590D02*
X0003594Y0093590D01*
X0003594Y0094589D02*
X0009356Y0094589D01*
X0009213Y0095587D02*
X0003594Y0095587D01*
X0003594Y0096586D02*
X0009213Y0096586D01*
X0009213Y0097585D02*
X0003594Y0097585D01*
X0003594Y0098583D02*
X0009213Y0098583D01*
X0009213Y0100580D02*
X0003594Y0100580D01*
X0003594Y0099582D02*
X0012792Y0099582D01*
X0009213Y0101579D02*
X0003594Y0101579D01*
X0003594Y0102577D02*
X0009213Y0102577D01*
X0009283Y0103576D02*
X0003594Y0103576D01*
X0003594Y0104574D02*
X0010366Y0104574D01*
X0012792Y0105573D02*
X0003594Y0105573D01*
X0003594Y0106571D02*
X0012792Y0106571D01*
X0012792Y0107570D02*
X0003594Y0107570D01*
X0003594Y0108568D02*
X0012792Y0108568D01*
X0012792Y0109567D02*
X0003594Y0109567D01*
X0003594Y0110565D02*
X0012792Y0110565D01*
X0012792Y0111564D02*
X0003594Y0111564D01*
X0003594Y0112562D02*
X0012792Y0112562D01*
X0012792Y0113561D02*
X0003594Y0113561D01*
X0003594Y0114559D02*
X0012792Y0114559D01*
X0012792Y0115558D02*
X0003594Y0115558D01*
X0003594Y0116556D02*
X0012792Y0116556D01*
X0012792Y0117555D02*
X0003594Y0117555D01*
X0003594Y0118553D02*
X0012792Y0118553D01*
X0012792Y0119552D02*
X0003594Y0119552D01*
X0003594Y0120550D02*
X0012792Y0120550D01*
X0012732Y0065632D02*
X0012792Y0065632D01*
X0012792Y0064634D02*
X0012732Y0064634D01*
X0012732Y0063635D02*
X0012792Y0063635D01*
X0012792Y0062637D02*
X0012732Y0062637D01*
X0022917Y0056854D02*
X0023547Y0056224D01*
X0023547Y0047169D01*
X0027091Y0046382D02*
X0027091Y0056697D01*
X0027248Y0056854D01*
X0029630Y0052698D02*
X0030003Y0052598D01*
X0031390Y0052598D01*
X0031390Y0056665D01*
X0031768Y0056665D01*
X0031768Y0052598D01*
X0033154Y0052598D01*
X0033527Y0052698D01*
X0033827Y0052398D01*
X0034339Y0052398D01*
X0034339Y0040083D01*
X0033333Y0039076D01*
X0033056Y0038409D01*
X0028567Y0042899D01*
X0029233Y0043175D01*
X0030297Y0044239D01*
X0030873Y0045629D01*
X0030873Y0047134D01*
X0030297Y0048525D01*
X0029291Y0049531D01*
X0029291Y0052398D01*
X0029330Y0052398D01*
X0029630Y0052698D01*
X0029583Y0052652D02*
X0029805Y0052652D01*
X0029291Y0051653D02*
X0034339Y0051653D01*
X0034339Y0050654D02*
X0029291Y0050654D01*
X0029291Y0049656D02*
X0034339Y0049656D01*
X0034339Y0048657D02*
X0030164Y0048657D01*
X0030656Y0047659D02*
X0034339Y0047659D01*
X0034339Y0046660D02*
X0030873Y0046660D01*
X0030873Y0045662D02*
X0034339Y0045662D01*
X0034339Y0044663D02*
X0030473Y0044663D01*
X0029723Y0043665D02*
X0034339Y0043665D01*
X0034339Y0042666D02*
X0028799Y0042666D01*
X0029798Y0041668D02*
X0034339Y0041668D01*
X0034339Y0040669D02*
X0030796Y0040669D01*
X0031795Y0039671D02*
X0033928Y0039671D01*
X0033165Y0038672D02*
X0032793Y0038672D01*
X0036539Y0036933D02*
X0036539Y0056224D01*
X0035909Y0056854D01*
X0033574Y0052652D02*
X0033352Y0052652D01*
X0031768Y0052652D02*
X0031390Y0052652D01*
X0031390Y0053650D02*
X0031768Y0053650D01*
X0031768Y0054649D02*
X0031390Y0054649D01*
X0031390Y0055647D02*
X0031768Y0055647D01*
X0031768Y0056646D02*
X0031390Y0056646D01*
X0040083Y0056697D02*
X0040240Y0056854D01*
X0040083Y0056697D02*
X0040083Y0040673D01*
X0043626Y0048685D02*
X0043859Y0048918D01*
X0043859Y0056143D01*
X0044571Y0056854D01*
X0047957Y0055909D02*
X0048902Y0056854D01*
X0047957Y0055909D02*
X0047957Y0044807D01*
X0043626Y0048685D02*
X0043626Y0030240D01*
X0047425Y0038764D02*
X0053862Y0045201D01*
X0053862Y0051500D01*
X0064886Y0051500D01*
X0065280Y0051106D01*
X0064158Y0045469D02*
X0062086Y0046327D01*
X0060501Y0047913D01*
X0059926Y0049300D01*
X0056062Y0049300D01*
X0056062Y0044290D01*
X0054773Y0043001D01*
X0052882Y0041109D01*
X0053040Y0041109D01*
X0054430Y0040534D01*
X0055494Y0039469D01*
X0056070Y0038079D01*
X0056070Y0036574D01*
X0055494Y0035184D01*
X0055339Y0035029D01*
X0055349Y0032464D01*
X0056259Y0032842D01*
X0057764Y0032842D01*
X0059155Y0032266D01*
X0060219Y0031202D01*
X0060794Y0029811D01*
X0060794Y0028388D01*
X0061043Y0028140D01*
X0061043Y0028139D01*
X0061043Y0028138D01*
X0061043Y0027230D01*
X0061043Y0026317D01*
X0061042Y0026316D01*
X0061040Y0023948D01*
X0061850Y0023948D01*
X0062050Y0023748D01*
X0063943Y0023748D01*
X0063943Y0012906D01*
X0064943Y0012906D01*
X0064943Y0023748D01*
X0066836Y0023748D01*
X0067036Y0023948D01*
X0067995Y0023948D01*
X0068049Y0028297D01*
X0067526Y0028820D01*
X0066102Y0028820D01*
X0064712Y0029396D01*
X0063648Y0030460D01*
X0063072Y0031850D01*
X0063072Y0033355D01*
X0063648Y0034745D01*
X0064712Y0035809D01*
X0066102Y0036385D01*
X0067304Y0036385D01*
X0066013Y0037677D01*
X0065154Y0039749D01*
X0065154Y0041991D01*
X0066013Y0044063D01*
X0067598Y0045649D01*
X0069670Y0046507D01*
X0071913Y0046507D01*
X0073984Y0045649D01*
X0074209Y0045424D01*
X0074209Y0053548D01*
X0075436Y0054775D01*
X0086020Y0054775D01*
X0086020Y0121454D01*
X0076428Y0121454D01*
X0076428Y0104614D01*
X0078627Y0104614D01*
X0079008Y0104512D01*
X0079350Y0104314D01*
X0079629Y0104035D01*
X0079827Y0103693D01*
X0079929Y0103312D01*
X0079929Y0099677D01*
X0076428Y0099677D01*
X0076428Y0098677D01*
X0079929Y0098677D01*
X0079929Y0095043D01*
X0079827Y0094661D01*
X0079629Y0094319D01*
X0079350Y0094040D01*
X0079008Y0093842D01*
X0078627Y0093740D01*
X0076428Y0093740D01*
X0076428Y0058113D01*
X0075202Y0056887D01*
X0056310Y0056887D01*
X0056310Y0053700D01*
X0060252Y0053700D01*
X0060501Y0054299D01*
X0062086Y0055885D01*
X0064158Y0056743D01*
X0066401Y0056743D01*
X0068473Y0055885D01*
X0070058Y0054299D01*
X0070917Y0052228D01*
X0070917Y0049985D01*
X0070058Y0047913D01*
X0068473Y0046327D01*
X0066401Y0045469D01*
X0064158Y0045469D01*
X0063693Y0045662D02*
X0056062Y0045662D01*
X0056062Y0046660D02*
X0061753Y0046660D01*
X0060755Y0047659D02*
X0056062Y0047659D01*
X0056062Y0048657D02*
X0060192Y0048657D01*
X0056062Y0044663D02*
X0066613Y0044663D01*
X0066866Y0045662D02*
X0067630Y0045662D01*
X0068806Y0046660D02*
X0074209Y0046660D01*
X0074209Y0045662D02*
X0073953Y0045662D01*
X0074209Y0047659D02*
X0069804Y0047659D01*
X0070367Y0048657D02*
X0074209Y0048657D01*
X0074209Y0049656D02*
X0070780Y0049656D01*
X0070917Y0050654D02*
X0074209Y0050654D01*
X0074209Y0051653D02*
X0070917Y0051653D01*
X0070741Y0052652D02*
X0074209Y0052652D01*
X0074311Y0053650D02*
X0070327Y0053650D01*
X0069709Y0054649D02*
X0075310Y0054649D01*
X0075959Y0057644D02*
X0086020Y0057644D01*
X0086020Y0056646D02*
X0066637Y0056646D01*
X0068711Y0055647D02*
X0086020Y0055647D01*
X0086020Y0058643D02*
X0076428Y0058643D01*
X0076428Y0059641D02*
X0086020Y0059641D01*
X0086020Y0060640D02*
X0076428Y0060640D01*
X0076428Y0061638D02*
X0086020Y0061638D01*
X0086020Y0062637D02*
X0076428Y0062637D01*
X0076428Y0063635D02*
X0086020Y0063635D01*
X0086020Y0064634D02*
X0076428Y0064634D01*
X0076428Y0065632D02*
X0086020Y0065632D01*
X0086020Y0066631D02*
X0076428Y0066631D01*
X0076428Y0067629D02*
X0086020Y0067629D01*
X0086020Y0068628D02*
X0076428Y0068628D01*
X0076428Y0069626D02*
X0086020Y0069626D01*
X0086020Y0070625D02*
X0076428Y0070625D01*
X0076428Y0071623D02*
X0086020Y0071623D01*
X0086020Y0072622D02*
X0076428Y0072622D01*
X0076428Y0073620D02*
X0086020Y0073620D01*
X0086020Y0074619D02*
X0076428Y0074619D01*
X0076428Y0075617D02*
X0086020Y0075617D01*
X0086020Y0076616D02*
X0076428Y0076616D01*
X0076428Y0077614D02*
X0086020Y0077614D01*
X0086020Y0078613D02*
X0076428Y0078613D01*
X0076428Y0079611D02*
X0086020Y0079611D01*
X0086020Y0080610D02*
X0076428Y0080610D01*
X0076428Y0081608D02*
X0086020Y0081608D01*
X0086020Y0082607D02*
X0076428Y0082607D01*
X0076428Y0083605D02*
X0086020Y0083605D01*
X0086020Y0084604D02*
X0076428Y0084604D01*
X0076428Y0085602D02*
X0086020Y0085602D01*
X0086020Y0086601D02*
X0076428Y0086601D01*
X0076428Y0087599D02*
X0086020Y0087599D01*
X0086020Y0088598D02*
X0076428Y0088598D01*
X0076428Y0089596D02*
X0086020Y0089596D01*
X0086020Y0090595D02*
X0076428Y0090595D01*
X0076428Y0091593D02*
X0086020Y0091593D01*
X0086020Y0092592D02*
X0076428Y0092592D01*
X0076428Y0093590D02*
X0086020Y0093590D01*
X0086020Y0094589D02*
X0079785Y0094589D01*
X0079929Y0095587D02*
X0086020Y0095587D01*
X0086020Y0096586D02*
X0079929Y0096586D01*
X0079929Y0097585D02*
X0086020Y0097585D01*
X0086020Y0098583D02*
X0079929Y0098583D01*
X0079929Y0100580D02*
X0086020Y0100580D01*
X0086020Y0099582D02*
X0076428Y0099582D01*
X0079929Y0101579D02*
X0086020Y0101579D01*
X0086020Y0102577D02*
X0079929Y0102577D01*
X0079858Y0103576D02*
X0086020Y0103576D01*
X0086020Y0104574D02*
X0078776Y0104574D01*
X0076428Y0105573D02*
X0086020Y0105573D01*
X0086020Y0106571D02*
X0076428Y0106571D01*
X0076428Y0107570D02*
X0086020Y0107570D01*
X0086020Y0108568D02*
X0076428Y0108568D01*
X0076428Y0109567D02*
X0086020Y0109567D01*
X0086020Y0110565D02*
X0076428Y0110565D01*
X0076428Y0111564D02*
X0086020Y0111564D01*
X0086020Y0112562D02*
X0076428Y0112562D01*
X0076428Y0113561D02*
X0086020Y0113561D01*
X0086020Y0114559D02*
X0076428Y0114559D01*
X0076428Y0115558D02*
X0086020Y0115558D01*
X0086020Y0116556D02*
X0076428Y0116556D01*
X0076428Y0117555D02*
X0086020Y0117555D01*
X0086020Y0118553D02*
X0076428Y0118553D01*
X0076428Y0119552D02*
X0086020Y0119552D01*
X0086020Y0120550D02*
X0076428Y0120550D01*
X0063922Y0056646D02*
X0056310Y0056646D01*
X0056310Y0055647D02*
X0061848Y0055647D01*
X0060850Y0054649D02*
X0056310Y0054649D01*
X0053862Y0056224D02*
X0053862Y0051500D01*
X0053862Y0056224D02*
X0053232Y0056854D01*
X0055438Y0043665D02*
X0065848Y0043665D01*
X0065434Y0042666D02*
X0054439Y0042666D01*
X0053441Y0041668D02*
X0065154Y0041668D01*
X0065154Y0040669D02*
X0054102Y0040669D01*
X0055293Y0039671D02*
X0065187Y0039671D01*
X0065600Y0038672D02*
X0055824Y0038672D01*
X0056070Y0037674D02*
X0066016Y0037674D01*
X0067014Y0036675D02*
X0056070Y0036675D01*
X0055698Y0035677D02*
X0064579Y0035677D01*
X0063620Y0034678D02*
X0055340Y0034678D01*
X0055344Y0033680D02*
X0063206Y0033680D01*
X0063072Y0032681D02*
X0058152Y0032681D01*
X0059738Y0031683D02*
X0063141Y0031683D01*
X0063554Y0030684D02*
X0060433Y0030684D01*
X0060794Y0029686D02*
X0064421Y0029686D01*
X0066854Y0032602D02*
X0070260Y0029197D01*
X0070260Y0040339D01*
X0070791Y0040870D01*
X0070260Y0029197D02*
X0070053Y0012406D01*
X0064943Y0013710D02*
X0063943Y0013710D01*
X0063943Y0014708D02*
X0064943Y0014708D01*
X0064943Y0015707D02*
X0063943Y0015707D01*
X0063943Y0016705D02*
X0064943Y0016705D01*
X0064943Y0017704D02*
X0063943Y0017704D01*
X0063943Y0018702D02*
X0064943Y0018702D01*
X0064943Y0019701D02*
X0063943Y0019701D01*
X0063943Y0020699D02*
X0064943Y0020699D01*
X0064943Y0021698D02*
X0063943Y0021698D01*
X0063943Y0022696D02*
X0064943Y0022696D01*
X0064943Y0023695D02*
X0063943Y0023695D01*
X0061041Y0024693D02*
X0068004Y0024693D01*
X0068017Y0025692D02*
X0061041Y0025692D01*
X0061043Y0026690D02*
X0068029Y0026690D01*
X0068041Y0027689D02*
X0061043Y0027689D01*
X0060794Y0028687D02*
X0067658Y0028687D01*
X0058843Y0027228D02*
X0057012Y0029059D01*
X0058843Y0027228D02*
X0058833Y0012406D01*
X0053222Y0012406D02*
X0053134Y0036480D01*
X0052287Y0037327D01*
X0055348Y0032681D02*
X0055872Y0032681D01*
X0047425Y0038764D02*
X0047612Y0012406D01*
D16*
X0057012Y0029059D03*
X0052287Y0037327D03*
X0047957Y0044807D03*
X0040083Y0040673D03*
X0036539Y0036933D03*
X0043626Y0030240D03*
X0032209Y0050713D03*
X0027091Y0046382D03*
X0027091Y0034177D03*
X0026697Y0025909D03*
X0018823Y0026697D03*
X0008193Y0068429D03*
X0066854Y0032602D03*
X0081028Y0068035D03*
M02*
