G04 #@! TF.FileFunction,Copper,L1,Top,Signal*
%FSLAX46Y46*%
G04 Gerber Fmt 4.6, Leading zero omitted, Abs format (unit mm)*
G04 Created by KiCad (PCBNEW 4.0.4-stable) date 07/01/17 17:47:29*
%MOMM*%
%LPD*%
G01*
G04 APERTURE LIST*
%ADD10C,0.100000*%
%ADD11R,1.400000X2.000000*%
%ADD12R,1.280000X1.400000*%
%ADD13R,0.700000X1.400000*%
%ADD14R,1.173480X4.998720*%
%ADD15C,0.635000*%
%ADD16C,0.355600*%
%ADD17C,0.254000*%
G04 APERTURE END LIST*
D10*
D11*
X18876300Y-6234800D03*
X3076300Y-6234800D03*
D12*
X3016300Y-15834800D03*
D13*
X13176300Y-16984800D03*
X12076300Y-16984800D03*
X10976300Y-16984800D03*
X9876300Y-16984800D03*
X8776300Y-16984800D03*
X7676300Y-16984800D03*
X6576300Y-16984800D03*
X5476300Y-16984800D03*
X4376300Y-16984800D03*
D14*
X14597380Y-28274800D03*
X6050280Y-28274800D03*
X8900160Y-28274800D03*
X10325100Y-28274800D03*
X11747500Y-28274800D03*
X13172440Y-28274800D03*
X4625340Y-28274800D03*
X16022320Y-28274800D03*
X7475220Y-28274800D03*
X17447260Y-28274800D03*
D15*
X4318000Y-24257000D03*
X15875000Y-24638000D03*
X7620000Y-19685000D03*
X13081000Y-21971000D03*
X11811000Y-24638000D03*
X10541000Y-22098000D03*
X5207000Y-22733000D03*
X9398000Y-20701000D03*
X17399000Y-24003000D03*
X15621000Y-19304000D03*
X8763000Y-18923000D03*
X4318000Y-19812000D03*
X6477000Y-18542000D03*
D16*
X18876300Y-6234800D02*
X18876300Y-16937700D01*
X15875000Y-22733000D02*
X15875000Y-24638000D01*
X16764000Y-21844000D02*
X15875000Y-22733000D01*
X16764000Y-19050000D02*
X16764000Y-21844000D01*
X18876300Y-16937700D02*
X16764000Y-19050000D01*
X3076300Y-6234800D02*
X3076300Y-15774800D01*
X3076300Y-15774800D02*
X3016300Y-15834800D01*
X4625340Y-24564340D02*
X4318000Y-24257000D01*
X4625340Y-28274800D02*
X4625340Y-24564340D01*
X16022320Y-24785320D02*
X15875000Y-24638000D01*
X16022320Y-24785320D02*
X16022320Y-28274800D01*
X7676300Y-16984800D02*
X7676300Y-19628700D01*
X7676300Y-19628700D02*
X7620000Y-19685000D01*
D17*
X3016300Y-15834800D02*
X3016300Y-14954300D01*
X3016300Y-14954300D02*
X2540000Y-14478000D01*
X3016300Y-15834800D02*
X3016300Y-17240300D01*
X3016300Y-17240300D02*
X3302000Y-17526000D01*
X11747500Y-28274800D02*
X11747500Y-24701500D01*
X13176300Y-21875700D02*
X13176300Y-16984800D01*
X13081000Y-21971000D02*
X13176300Y-21875700D01*
X11747500Y-24701500D02*
X11811000Y-24638000D01*
X13172440Y-28274800D02*
X13172440Y-24094440D01*
X12076300Y-22998300D02*
X12076300Y-16984800D01*
X13172440Y-24094440D02*
X12076300Y-22998300D01*
X10976300Y-21662700D02*
X10541000Y-22098000D01*
X10976300Y-16984800D02*
X10976300Y-21662700D01*
X6050280Y-23576280D02*
X6050280Y-28274800D01*
X5207000Y-22733000D02*
X6050280Y-23576280D01*
X6096000Y-28229080D02*
X6050280Y-28274800D01*
D16*
X9876300Y-16984800D02*
X9876300Y-20222700D01*
X9876300Y-20222700D02*
X9398000Y-20701000D01*
X17447260Y-24051260D02*
X17399000Y-24003000D01*
X17447260Y-28274800D02*
X17447260Y-24051260D01*
X9906000Y-17014500D02*
X9876300Y-16984800D01*
D17*
X14597380Y-20327620D02*
X15621000Y-19304000D01*
X14597380Y-28274800D02*
X14597380Y-20327620D01*
X8776300Y-18909700D02*
X8776300Y-16984800D01*
X8763000Y-18923000D02*
X8776300Y-18909700D01*
X8900160Y-28274800D02*
X8900160Y-24267160D01*
X4445000Y-19812000D02*
X4318000Y-19812000D01*
X8900160Y-24267160D02*
X4445000Y-19812000D01*
X6576300Y-18442700D02*
X6576300Y-16984800D01*
X6477000Y-18542000D02*
X6576300Y-18442700D01*
X10325100Y-28274800D02*
X10325100Y-24041100D01*
X5476300Y-19192300D02*
X5476300Y-16984800D01*
X10325100Y-24041100D02*
X5476300Y-19192300D01*
G36*
X2929500Y-4803800D02*
X2333850Y-4803800D01*
X2250582Y-4820363D01*
X2172145Y-4852853D01*
X2101553Y-4900021D01*
X2041520Y-4960054D01*
X1994353Y-5030645D01*
X1961863Y-5109082D01*
X1945300Y-5192350D01*
X1945300Y-6102050D01*
X2053050Y-6209800D01*
X2929500Y-6209800D01*
X2929500Y-6259800D01*
X2053050Y-6259800D01*
X1945300Y-6367550D01*
X1945300Y-7277250D01*
X1961863Y-7360518D01*
X1994353Y-7438955D01*
X2041520Y-7509546D01*
X2101553Y-7569579D01*
X2172145Y-7616747D01*
X2250582Y-7649237D01*
X2333850Y-7665800D01*
X2929500Y-7665800D01*
X2929500Y-14749750D01*
X2883550Y-14703800D01*
X2333850Y-14703800D01*
X2250582Y-14720363D01*
X2172145Y-14752853D01*
X2101553Y-14800021D01*
X2041520Y-14860054D01*
X1994353Y-14930645D01*
X1961863Y-15009082D01*
X1945300Y-15092350D01*
X1945300Y-15702050D01*
X2053050Y-15809800D01*
X2929500Y-15809800D01*
X2929500Y-15859800D01*
X2053050Y-15859800D01*
X1945300Y-15967550D01*
X1945300Y-16577250D01*
X1961863Y-16660518D01*
X1994353Y-16738955D01*
X2041520Y-16809546D01*
X2101553Y-16869579D01*
X2172145Y-16916747D01*
X2250582Y-16949237D01*
X2333850Y-16965800D01*
X2883550Y-16965800D01*
X2991300Y-16858050D01*
X2991300Y-16682274D01*
X3012228Y-16722305D01*
X3013342Y-16723691D01*
X3014176Y-16725259D01*
X3041300Y-16758516D01*
X3041300Y-16858050D01*
X3149050Y-16965800D01*
X3592411Y-16965800D01*
X3592411Y-17684800D01*
X3597894Y-17753563D01*
X3634012Y-17870191D01*
X3701192Y-17972140D01*
X3794114Y-18051337D01*
X3905421Y-18101511D01*
X4026300Y-18118689D01*
X4726300Y-18118689D01*
X4795063Y-18113206D01*
X4911691Y-18077088D01*
X4917500Y-18073260D01*
X4917500Y-19192300D01*
X4922541Y-19243714D01*
X4927036Y-19295091D01*
X4927855Y-19297910D01*
X4928142Y-19300838D01*
X4943067Y-19350270D01*
X4957462Y-19399820D01*
X4958815Y-19402430D01*
X4959664Y-19405242D01*
X4983886Y-19450797D01*
X5007651Y-19496644D01*
X5009485Y-19498941D01*
X5010864Y-19501535D01*
X5043475Y-19541520D01*
X5075690Y-19581876D01*
X5079721Y-19585963D01*
X5079792Y-19586050D01*
X5079873Y-19586117D01*
X5081169Y-19587431D01*
X9766300Y-24272562D01*
X9766300Y-25341551D01*
X9738360Y-25341551D01*
X9669597Y-25347034D01*
X9617575Y-25363145D01*
X9607779Y-25358729D01*
X9486900Y-25341551D01*
X9458960Y-25341551D01*
X9458960Y-24267160D01*
X9453923Y-24215792D01*
X9449425Y-24164369D01*
X9448605Y-24161545D01*
X9448318Y-24158622D01*
X9433406Y-24109232D01*
X9418998Y-24059640D01*
X9417645Y-24057030D01*
X9416796Y-24054218D01*
X9392574Y-24008663D01*
X9368809Y-23962816D01*
X9366975Y-23960519D01*
X9365596Y-23957925D01*
X9332985Y-23917940D01*
X9300770Y-23877584D01*
X9296739Y-23873497D01*
X9296668Y-23873410D01*
X9296587Y-23873343D01*
X9295291Y-23872029D01*
X5044013Y-19620751D01*
X5038791Y-19594380D01*
X4982794Y-19458523D01*
X4901476Y-19336129D01*
X4797933Y-19231861D01*
X4676110Y-19149690D01*
X4540646Y-19092746D01*
X4396702Y-19063199D01*
X4249760Y-19062173D01*
X4105418Y-19089708D01*
X3969172Y-19144754D01*
X3846214Y-19225216D01*
X3741225Y-19328028D01*
X3658206Y-19449275D01*
X3600318Y-19584338D01*
X3569766Y-19728072D01*
X3567715Y-19875003D01*
X3594241Y-20019535D01*
X3648335Y-20156161D01*
X3727937Y-20279678D01*
X3830014Y-20385382D01*
X3950678Y-20469246D01*
X4085333Y-20528075D01*
X4228851Y-20559630D01*
X4375764Y-20562707D01*
X4400996Y-20558258D01*
X8341360Y-24498622D01*
X8341360Y-25341551D01*
X8313420Y-25341551D01*
X8244657Y-25347034D01*
X8192757Y-25363107D01*
X8187678Y-25361003D01*
X8104410Y-25344440D01*
X7607970Y-25344440D01*
X7500220Y-25452190D01*
X7500220Y-28249800D01*
X7520220Y-28249800D01*
X7520220Y-28299800D01*
X7500220Y-28299800D01*
X7500220Y-28319800D01*
X7450220Y-28319800D01*
X7450220Y-28299800D01*
X7430220Y-28299800D01*
X7430220Y-28249800D01*
X7450220Y-28249800D01*
X7450220Y-25452190D01*
X7342470Y-25344440D01*
X6846030Y-25344440D01*
X6762888Y-25360978D01*
X6757899Y-25358729D01*
X6637020Y-25341551D01*
X6609080Y-25341551D01*
X6609080Y-23576280D01*
X6604039Y-23524866D01*
X6599544Y-23473489D01*
X6598725Y-23470670D01*
X6598438Y-23467742D01*
X6583513Y-23418310D01*
X6569118Y-23368760D01*
X6567765Y-23366150D01*
X6566916Y-23363338D01*
X6542694Y-23317783D01*
X6518929Y-23271936D01*
X6517095Y-23269639D01*
X6515716Y-23267045D01*
X6483105Y-23227060D01*
X6450890Y-23186704D01*
X6446859Y-23182617D01*
X6446788Y-23182530D01*
X6446707Y-23182463D01*
X6445411Y-23181149D01*
X5955885Y-22691623D01*
X5956333Y-22659527D01*
X5927791Y-22515380D01*
X5871794Y-22379523D01*
X5790476Y-22257129D01*
X5686933Y-22152861D01*
X5565110Y-22070690D01*
X5429646Y-22013746D01*
X5285702Y-21984199D01*
X5138760Y-21983173D01*
X4994418Y-22010708D01*
X4858172Y-22065754D01*
X4735214Y-22146216D01*
X4630225Y-22249028D01*
X4547206Y-22370275D01*
X4489318Y-22505338D01*
X4458766Y-22649072D01*
X4456715Y-22796003D01*
X4483241Y-22940535D01*
X4537335Y-23077161D01*
X4616937Y-23200678D01*
X4719014Y-23306382D01*
X4839678Y-23390246D01*
X4974333Y-23449075D01*
X5117851Y-23480630D01*
X5165363Y-23481625D01*
X5491480Y-23807742D01*
X5491480Y-25341551D01*
X5463540Y-25341551D01*
X5394777Y-25347034D01*
X5342877Y-25363107D01*
X5337798Y-25361003D01*
X5254530Y-25344440D01*
X4758090Y-25344440D01*
X4650340Y-25452190D01*
X4650340Y-28249800D01*
X4670340Y-28249800D01*
X4670340Y-28299800D01*
X4650340Y-28299800D01*
X4650340Y-28319800D01*
X4600340Y-28319800D01*
X4600340Y-28299800D01*
X3715350Y-28299800D01*
X3607600Y-28407550D01*
X3607600Y-30538000D01*
X3543100Y-30538000D01*
X3543100Y-25732990D01*
X3607600Y-25732990D01*
X3607600Y-28142050D01*
X3715350Y-28249800D01*
X4600340Y-28249800D01*
X4600340Y-25452190D01*
X4492590Y-25344440D01*
X3996150Y-25344440D01*
X3912882Y-25361003D01*
X3834445Y-25393493D01*
X3763853Y-25440661D01*
X3703820Y-25500694D01*
X3656653Y-25571285D01*
X3624163Y-25649722D01*
X3607600Y-25732990D01*
X3543100Y-25732990D01*
X3543100Y-18044800D01*
X3538448Y-17997351D01*
X3534123Y-17949835D01*
X3533621Y-17948131D01*
X3533448Y-17946362D01*
X3519670Y-17900726D01*
X3506197Y-17854949D01*
X3505373Y-17853372D01*
X3504860Y-17851674D01*
X3482492Y-17809606D01*
X3460372Y-17767295D01*
X3459258Y-17765909D01*
X3458424Y-17764341D01*
X3428289Y-17727392D01*
X3398395Y-17690211D01*
X3397034Y-17689069D01*
X3395910Y-17687691D01*
X3359173Y-17657300D01*
X3322625Y-17626632D01*
X3321066Y-17625775D01*
X3319699Y-17624644D01*
X3277804Y-17601992D01*
X3235950Y-17578982D01*
X3234254Y-17578444D01*
X3232693Y-17577600D01*
X3187147Y-17563501D01*
X3141670Y-17549075D01*
X3139905Y-17548877D01*
X3138206Y-17548351D01*
X3090751Y-17543363D01*
X3043376Y-17538049D01*
X3039965Y-17538025D01*
X3039838Y-17538012D01*
X3039710Y-17538024D01*
X3036300Y-17538000D01*
X543100Y-17538000D01*
X543100Y-551600D01*
X2929500Y-551600D01*
X2929500Y-4803800D01*
X2929500Y-4803800D01*
G37*
X2929500Y-4803800D02*
X2333850Y-4803800D01*
X2250582Y-4820363D01*
X2172145Y-4852853D01*
X2101553Y-4900021D01*
X2041520Y-4960054D01*
X1994353Y-5030645D01*
X1961863Y-5109082D01*
X1945300Y-5192350D01*
X1945300Y-6102050D01*
X2053050Y-6209800D01*
X2929500Y-6209800D01*
X2929500Y-6259800D01*
X2053050Y-6259800D01*
X1945300Y-6367550D01*
X1945300Y-7277250D01*
X1961863Y-7360518D01*
X1994353Y-7438955D01*
X2041520Y-7509546D01*
X2101553Y-7569579D01*
X2172145Y-7616747D01*
X2250582Y-7649237D01*
X2333850Y-7665800D01*
X2929500Y-7665800D01*
X2929500Y-14749750D01*
X2883550Y-14703800D01*
X2333850Y-14703800D01*
X2250582Y-14720363D01*
X2172145Y-14752853D01*
X2101553Y-14800021D01*
X2041520Y-14860054D01*
X1994353Y-14930645D01*
X1961863Y-15009082D01*
X1945300Y-15092350D01*
X1945300Y-15702050D01*
X2053050Y-15809800D01*
X2929500Y-15809800D01*
X2929500Y-15859800D01*
X2053050Y-15859800D01*
X1945300Y-15967550D01*
X1945300Y-16577250D01*
X1961863Y-16660518D01*
X1994353Y-16738955D01*
X2041520Y-16809546D01*
X2101553Y-16869579D01*
X2172145Y-16916747D01*
X2250582Y-16949237D01*
X2333850Y-16965800D01*
X2883550Y-16965800D01*
X2991300Y-16858050D01*
X2991300Y-16682274D01*
X3012228Y-16722305D01*
X3013342Y-16723691D01*
X3014176Y-16725259D01*
X3041300Y-16758516D01*
X3041300Y-16858050D01*
X3149050Y-16965800D01*
X3592411Y-16965800D01*
X3592411Y-17684800D01*
X3597894Y-17753563D01*
X3634012Y-17870191D01*
X3701192Y-17972140D01*
X3794114Y-18051337D01*
X3905421Y-18101511D01*
X4026300Y-18118689D01*
X4726300Y-18118689D01*
X4795063Y-18113206D01*
X4911691Y-18077088D01*
X4917500Y-18073260D01*
X4917500Y-19192300D01*
X4922541Y-19243714D01*
X4927036Y-19295091D01*
X4927855Y-19297910D01*
X4928142Y-19300838D01*
X4943067Y-19350270D01*
X4957462Y-19399820D01*
X4958815Y-19402430D01*
X4959664Y-19405242D01*
X4983886Y-19450797D01*
X5007651Y-19496644D01*
X5009485Y-19498941D01*
X5010864Y-19501535D01*
X5043475Y-19541520D01*
X5075690Y-19581876D01*
X5079721Y-19585963D01*
X5079792Y-19586050D01*
X5079873Y-19586117D01*
X5081169Y-19587431D01*
X9766300Y-24272562D01*
X9766300Y-25341551D01*
X9738360Y-25341551D01*
X9669597Y-25347034D01*
X9617575Y-25363145D01*
X9607779Y-25358729D01*
X9486900Y-25341551D01*
X9458960Y-25341551D01*
X9458960Y-24267160D01*
X9453923Y-24215792D01*
X9449425Y-24164369D01*
X9448605Y-24161545D01*
X9448318Y-24158622D01*
X9433406Y-24109232D01*
X9418998Y-24059640D01*
X9417645Y-24057030D01*
X9416796Y-24054218D01*
X9392574Y-24008663D01*
X9368809Y-23962816D01*
X9366975Y-23960519D01*
X9365596Y-23957925D01*
X9332985Y-23917940D01*
X9300770Y-23877584D01*
X9296739Y-23873497D01*
X9296668Y-23873410D01*
X9296587Y-23873343D01*
X9295291Y-23872029D01*
X5044013Y-19620751D01*
X5038791Y-19594380D01*
X4982794Y-19458523D01*
X4901476Y-19336129D01*
X4797933Y-19231861D01*
X4676110Y-19149690D01*
X4540646Y-19092746D01*
X4396702Y-19063199D01*
X4249760Y-19062173D01*
X4105418Y-19089708D01*
X3969172Y-19144754D01*
X3846214Y-19225216D01*
X3741225Y-19328028D01*
X3658206Y-19449275D01*
X3600318Y-19584338D01*
X3569766Y-19728072D01*
X3567715Y-19875003D01*
X3594241Y-20019535D01*
X3648335Y-20156161D01*
X3727937Y-20279678D01*
X3830014Y-20385382D01*
X3950678Y-20469246D01*
X4085333Y-20528075D01*
X4228851Y-20559630D01*
X4375764Y-20562707D01*
X4400996Y-20558258D01*
X8341360Y-24498622D01*
X8341360Y-25341551D01*
X8313420Y-25341551D01*
X8244657Y-25347034D01*
X8192757Y-25363107D01*
X8187678Y-25361003D01*
X8104410Y-25344440D01*
X7607970Y-25344440D01*
X7500220Y-25452190D01*
X7500220Y-28249800D01*
X7520220Y-28249800D01*
X7520220Y-28299800D01*
X7500220Y-28299800D01*
X7500220Y-28319800D01*
X7450220Y-28319800D01*
X7450220Y-28299800D01*
X7430220Y-28299800D01*
X7430220Y-28249800D01*
X7450220Y-28249800D01*
X7450220Y-25452190D01*
X7342470Y-25344440D01*
X6846030Y-25344440D01*
X6762888Y-25360978D01*
X6757899Y-25358729D01*
X6637020Y-25341551D01*
X6609080Y-25341551D01*
X6609080Y-23576280D01*
X6604039Y-23524866D01*
X6599544Y-23473489D01*
X6598725Y-23470670D01*
X6598438Y-23467742D01*
X6583513Y-23418310D01*
X6569118Y-23368760D01*
X6567765Y-23366150D01*
X6566916Y-23363338D01*
X6542694Y-23317783D01*
X6518929Y-23271936D01*
X6517095Y-23269639D01*
X6515716Y-23267045D01*
X6483105Y-23227060D01*
X6450890Y-23186704D01*
X6446859Y-23182617D01*
X6446788Y-23182530D01*
X6446707Y-23182463D01*
X6445411Y-23181149D01*
X5955885Y-22691623D01*
X5956333Y-22659527D01*
X5927791Y-22515380D01*
X5871794Y-22379523D01*
X5790476Y-22257129D01*
X5686933Y-22152861D01*
X5565110Y-22070690D01*
X5429646Y-22013746D01*
X5285702Y-21984199D01*
X5138760Y-21983173D01*
X4994418Y-22010708D01*
X4858172Y-22065754D01*
X4735214Y-22146216D01*
X4630225Y-22249028D01*
X4547206Y-22370275D01*
X4489318Y-22505338D01*
X4458766Y-22649072D01*
X4456715Y-22796003D01*
X4483241Y-22940535D01*
X4537335Y-23077161D01*
X4616937Y-23200678D01*
X4719014Y-23306382D01*
X4839678Y-23390246D01*
X4974333Y-23449075D01*
X5117851Y-23480630D01*
X5165363Y-23481625D01*
X5491480Y-23807742D01*
X5491480Y-25341551D01*
X5463540Y-25341551D01*
X5394777Y-25347034D01*
X5342877Y-25363107D01*
X5337798Y-25361003D01*
X5254530Y-25344440D01*
X4758090Y-25344440D01*
X4650340Y-25452190D01*
X4650340Y-28249800D01*
X4670340Y-28249800D01*
X4670340Y-28299800D01*
X4650340Y-28299800D01*
X4650340Y-28319800D01*
X4600340Y-28319800D01*
X4600340Y-28299800D01*
X3715350Y-28299800D01*
X3607600Y-28407550D01*
X3607600Y-30538000D01*
X3543100Y-30538000D01*
X3543100Y-25732990D01*
X3607600Y-25732990D01*
X3607600Y-28142050D01*
X3715350Y-28249800D01*
X4600340Y-28249800D01*
X4600340Y-25452190D01*
X4492590Y-25344440D01*
X3996150Y-25344440D01*
X3912882Y-25361003D01*
X3834445Y-25393493D01*
X3763853Y-25440661D01*
X3703820Y-25500694D01*
X3656653Y-25571285D01*
X3624163Y-25649722D01*
X3607600Y-25732990D01*
X3543100Y-25732990D01*
X3543100Y-18044800D01*
X3538448Y-17997351D01*
X3534123Y-17949835D01*
X3533621Y-17948131D01*
X3533448Y-17946362D01*
X3519670Y-17900726D01*
X3506197Y-17854949D01*
X3505373Y-17853372D01*
X3504860Y-17851674D01*
X3482492Y-17809606D01*
X3460372Y-17767295D01*
X3459258Y-17765909D01*
X3458424Y-17764341D01*
X3428289Y-17727392D01*
X3398395Y-17690211D01*
X3397034Y-17689069D01*
X3395910Y-17687691D01*
X3359173Y-17657300D01*
X3322625Y-17626632D01*
X3321066Y-17625775D01*
X3319699Y-17624644D01*
X3277804Y-17601992D01*
X3235950Y-17578982D01*
X3234254Y-17578444D01*
X3232693Y-17577600D01*
X3187147Y-17563501D01*
X3141670Y-17549075D01*
X3139905Y-17548877D01*
X3138206Y-17548351D01*
X3090751Y-17543363D01*
X3043376Y-17538049D01*
X3039965Y-17538025D01*
X3039838Y-17538012D01*
X3039710Y-17538024D01*
X3036300Y-17538000D01*
X543100Y-17538000D01*
X543100Y-551600D01*
X2929500Y-551600D01*
X2929500Y-4803800D01*
G36*
X21529500Y-17538000D02*
X19036300Y-17538000D01*
X18988851Y-17542652D01*
X18941335Y-17546977D01*
X18939631Y-17547479D01*
X18937862Y-17547652D01*
X18892226Y-17561430D01*
X18846449Y-17574903D01*
X18844872Y-17575727D01*
X18843174Y-17576240D01*
X18801106Y-17598608D01*
X18758795Y-17620728D01*
X18757409Y-17621842D01*
X18755841Y-17622676D01*
X18718892Y-17652811D01*
X18681711Y-17682705D01*
X18680569Y-17684066D01*
X18679191Y-17685190D01*
X18648800Y-17721927D01*
X18618132Y-17758475D01*
X18617275Y-17760034D01*
X18616144Y-17761401D01*
X18593492Y-17803296D01*
X18570482Y-17845150D01*
X18569944Y-17846846D01*
X18569100Y-17848407D01*
X18555001Y-17893953D01*
X18540575Y-17939430D01*
X18540377Y-17941195D01*
X18539851Y-17942894D01*
X18534863Y-17990349D01*
X18529549Y-18037724D01*
X18529525Y-18041135D01*
X18529512Y-18041262D01*
X18529524Y-18041390D01*
X18529500Y-18044800D01*
X18529500Y-30538000D01*
X18467889Y-30538000D01*
X18467889Y-25775440D01*
X18462406Y-25706677D01*
X18426288Y-25590049D01*
X18359108Y-25488100D01*
X18266186Y-25408903D01*
X18154879Y-25358729D01*
X18056860Y-25344800D01*
X18056860Y-24367726D01*
X18113433Y-24240660D01*
X18145989Y-24097367D01*
X18148333Y-23929527D01*
X18119791Y-23785380D01*
X18063794Y-23649523D01*
X17982476Y-23527129D01*
X17878933Y-23422861D01*
X17757110Y-23340690D01*
X17621646Y-23283746D01*
X17477702Y-23254199D01*
X17330760Y-23253173D01*
X17186418Y-23280708D01*
X17050172Y-23335754D01*
X16927214Y-23416216D01*
X16822225Y-23519028D01*
X16739206Y-23640275D01*
X16681318Y-23775338D01*
X16650766Y-23919072D01*
X16648715Y-24066003D01*
X16675241Y-24210535D01*
X16729335Y-24347161D01*
X16808937Y-24470678D01*
X16837660Y-24500422D01*
X16837660Y-25343374D01*
X16791757Y-25347034D01*
X16739857Y-25363107D01*
X16734778Y-25361003D01*
X16651510Y-25344440D01*
X16155070Y-25344440D01*
X16047320Y-25452190D01*
X16047320Y-28249800D01*
X16067320Y-28249800D01*
X16067320Y-28299800D01*
X16047320Y-28299800D01*
X16047320Y-28319800D01*
X15997320Y-28319800D01*
X15997320Y-28299800D01*
X15977320Y-28299800D01*
X15977320Y-28249800D01*
X15997320Y-28249800D01*
X15997320Y-25452190D01*
X15889570Y-25344440D01*
X15393130Y-25344440D01*
X15309988Y-25360978D01*
X15304999Y-25358729D01*
X15184120Y-25341551D01*
X15156180Y-25341551D01*
X15156180Y-20559082D01*
X15660929Y-20054333D01*
X15678764Y-20054707D01*
X15823477Y-20029190D01*
X15960477Y-19976051D01*
X16084548Y-19897314D01*
X16190961Y-19795977D01*
X16275665Y-19675902D01*
X16335433Y-19541660D01*
X16367989Y-19398367D01*
X16370333Y-19230527D01*
X16341791Y-19086380D01*
X16285794Y-18950523D01*
X16204476Y-18828129D01*
X16100933Y-18723861D01*
X15979110Y-18641690D01*
X15843646Y-18584746D01*
X15699702Y-18555199D01*
X15552760Y-18554173D01*
X15408418Y-18581708D01*
X15272172Y-18636754D01*
X15149214Y-18717216D01*
X15044225Y-18820028D01*
X14961206Y-18941275D01*
X14903318Y-19076338D01*
X14872766Y-19220072D01*
X14872173Y-19262565D01*
X14202249Y-19932489D01*
X14169496Y-19972363D01*
X14136307Y-20011916D01*
X14134891Y-20014491D01*
X14133026Y-20016762D01*
X14108640Y-20062242D01*
X14083767Y-20107485D01*
X14082878Y-20110287D01*
X14081490Y-20112876D01*
X14066409Y-20162204D01*
X14050791Y-20211439D01*
X14050463Y-20214362D01*
X14049605Y-20217169D01*
X14044392Y-20268483D01*
X14038634Y-20319818D01*
X14038594Y-20325559D01*
X14038583Y-20325670D01*
X14038593Y-20325773D01*
X14038580Y-20327620D01*
X14038580Y-25341551D01*
X14010640Y-25341551D01*
X13941877Y-25347034D01*
X13889855Y-25363145D01*
X13880059Y-25358729D01*
X13759180Y-25341551D01*
X13731240Y-25341551D01*
X13731240Y-24094440D01*
X13726199Y-24043026D01*
X13721704Y-23991649D01*
X13720885Y-23988830D01*
X13720598Y-23985902D01*
X13705673Y-23936470D01*
X13691278Y-23886920D01*
X13689925Y-23884310D01*
X13689076Y-23881498D01*
X13664854Y-23835943D01*
X13641089Y-23790096D01*
X13639255Y-23787799D01*
X13637876Y-23785205D01*
X13605265Y-23745220D01*
X13573050Y-23704864D01*
X13569019Y-23700777D01*
X13568948Y-23700690D01*
X13568867Y-23700623D01*
X13567571Y-23699309D01*
X12635100Y-22766838D01*
X12635100Y-22573633D01*
X12713678Y-22628246D01*
X12848333Y-22687075D01*
X12991851Y-22718630D01*
X13138764Y-22721707D01*
X13283477Y-22696190D01*
X13420477Y-22643051D01*
X13544548Y-22564314D01*
X13650961Y-22462977D01*
X13735665Y-22342902D01*
X13795433Y-22208660D01*
X13827989Y-22065367D01*
X13830333Y-21897527D01*
X13801791Y-21753380D01*
X13745794Y-21617523D01*
X13735100Y-21601427D01*
X13735100Y-18061662D01*
X13813640Y-18009908D01*
X13892837Y-17916986D01*
X13943011Y-17805679D01*
X13960189Y-17684800D01*
X13960189Y-16951600D01*
X18536300Y-16951600D01*
X18583749Y-16946948D01*
X18631265Y-16942623D01*
X18632969Y-16942121D01*
X18634738Y-16941948D01*
X18680374Y-16928170D01*
X18726151Y-16914697D01*
X18727728Y-16913873D01*
X18729426Y-16913360D01*
X18771494Y-16890992D01*
X18813805Y-16868872D01*
X18815191Y-16867758D01*
X18816759Y-16866924D01*
X18853708Y-16836789D01*
X18890889Y-16806895D01*
X18892031Y-16805534D01*
X18893409Y-16804410D01*
X18923800Y-16767673D01*
X18954468Y-16731125D01*
X18955325Y-16729566D01*
X18956456Y-16728199D01*
X18979108Y-16686304D01*
X19002118Y-16644450D01*
X19002656Y-16642754D01*
X19003500Y-16641193D01*
X19017599Y-16595647D01*
X19032025Y-16550170D01*
X19032223Y-16548405D01*
X19032749Y-16546706D01*
X19037737Y-16499251D01*
X19043051Y-16451876D01*
X19043075Y-16448465D01*
X19043088Y-16448338D01*
X19043076Y-16448210D01*
X19043100Y-16444800D01*
X19043100Y-7665800D01*
X19618750Y-7665800D01*
X19702018Y-7649237D01*
X19780455Y-7616747D01*
X19851047Y-7569579D01*
X19911080Y-7509546D01*
X19958247Y-7438955D01*
X19990737Y-7360518D01*
X20007300Y-7277250D01*
X20007300Y-6367550D01*
X19899550Y-6259800D01*
X19043100Y-6259800D01*
X19043100Y-6209800D01*
X19899550Y-6209800D01*
X20007300Y-6102050D01*
X20007300Y-5192350D01*
X19990737Y-5109082D01*
X19958247Y-5030645D01*
X19911080Y-4960054D01*
X19851047Y-4900021D01*
X19780455Y-4852853D01*
X19702018Y-4820363D01*
X19618750Y-4803800D01*
X19043100Y-4803800D01*
X19043100Y-551600D01*
X21529500Y-551600D01*
X21529500Y-17538000D01*
X21529500Y-17538000D01*
G37*
X21529500Y-17538000D02*
X19036300Y-17538000D01*
X18988851Y-17542652D01*
X18941335Y-17546977D01*
X18939631Y-17547479D01*
X18937862Y-17547652D01*
X18892226Y-17561430D01*
X18846449Y-17574903D01*
X18844872Y-17575727D01*
X18843174Y-17576240D01*
X18801106Y-17598608D01*
X18758795Y-17620728D01*
X18757409Y-17621842D01*
X18755841Y-17622676D01*
X18718892Y-17652811D01*
X18681711Y-17682705D01*
X18680569Y-17684066D01*
X18679191Y-17685190D01*
X18648800Y-17721927D01*
X18618132Y-17758475D01*
X18617275Y-17760034D01*
X18616144Y-17761401D01*
X18593492Y-17803296D01*
X18570482Y-17845150D01*
X18569944Y-17846846D01*
X18569100Y-17848407D01*
X18555001Y-17893953D01*
X18540575Y-17939430D01*
X18540377Y-17941195D01*
X18539851Y-17942894D01*
X18534863Y-17990349D01*
X18529549Y-18037724D01*
X18529525Y-18041135D01*
X18529512Y-18041262D01*
X18529524Y-18041390D01*
X18529500Y-18044800D01*
X18529500Y-30538000D01*
X18467889Y-30538000D01*
X18467889Y-25775440D01*
X18462406Y-25706677D01*
X18426288Y-25590049D01*
X18359108Y-25488100D01*
X18266186Y-25408903D01*
X18154879Y-25358729D01*
X18056860Y-25344800D01*
X18056860Y-24367726D01*
X18113433Y-24240660D01*
X18145989Y-24097367D01*
X18148333Y-23929527D01*
X18119791Y-23785380D01*
X18063794Y-23649523D01*
X17982476Y-23527129D01*
X17878933Y-23422861D01*
X17757110Y-23340690D01*
X17621646Y-23283746D01*
X17477702Y-23254199D01*
X17330760Y-23253173D01*
X17186418Y-23280708D01*
X17050172Y-23335754D01*
X16927214Y-23416216D01*
X16822225Y-23519028D01*
X16739206Y-23640275D01*
X16681318Y-23775338D01*
X16650766Y-23919072D01*
X16648715Y-24066003D01*
X16675241Y-24210535D01*
X16729335Y-24347161D01*
X16808937Y-24470678D01*
X16837660Y-24500422D01*
X16837660Y-25343374D01*
X16791757Y-25347034D01*
X16739857Y-25363107D01*
X16734778Y-25361003D01*
X16651510Y-25344440D01*
X16155070Y-25344440D01*
X16047320Y-25452190D01*
X16047320Y-28249800D01*
X16067320Y-28249800D01*
X16067320Y-28299800D01*
X16047320Y-28299800D01*
X16047320Y-28319800D01*
X15997320Y-28319800D01*
X15997320Y-28299800D01*
X15977320Y-28299800D01*
X15977320Y-28249800D01*
X15997320Y-28249800D01*
X15997320Y-25452190D01*
X15889570Y-25344440D01*
X15393130Y-25344440D01*
X15309988Y-25360978D01*
X15304999Y-25358729D01*
X15184120Y-25341551D01*
X15156180Y-25341551D01*
X15156180Y-20559082D01*
X15660929Y-20054333D01*
X15678764Y-20054707D01*
X15823477Y-20029190D01*
X15960477Y-19976051D01*
X16084548Y-19897314D01*
X16190961Y-19795977D01*
X16275665Y-19675902D01*
X16335433Y-19541660D01*
X16367989Y-19398367D01*
X16370333Y-19230527D01*
X16341791Y-19086380D01*
X16285794Y-18950523D01*
X16204476Y-18828129D01*
X16100933Y-18723861D01*
X15979110Y-18641690D01*
X15843646Y-18584746D01*
X15699702Y-18555199D01*
X15552760Y-18554173D01*
X15408418Y-18581708D01*
X15272172Y-18636754D01*
X15149214Y-18717216D01*
X15044225Y-18820028D01*
X14961206Y-18941275D01*
X14903318Y-19076338D01*
X14872766Y-19220072D01*
X14872173Y-19262565D01*
X14202249Y-19932489D01*
X14169496Y-19972363D01*
X14136307Y-20011916D01*
X14134891Y-20014491D01*
X14133026Y-20016762D01*
X14108640Y-20062242D01*
X14083767Y-20107485D01*
X14082878Y-20110287D01*
X14081490Y-20112876D01*
X14066409Y-20162204D01*
X14050791Y-20211439D01*
X14050463Y-20214362D01*
X14049605Y-20217169D01*
X14044392Y-20268483D01*
X14038634Y-20319818D01*
X14038594Y-20325559D01*
X14038583Y-20325670D01*
X14038593Y-20325773D01*
X14038580Y-20327620D01*
X14038580Y-25341551D01*
X14010640Y-25341551D01*
X13941877Y-25347034D01*
X13889855Y-25363145D01*
X13880059Y-25358729D01*
X13759180Y-25341551D01*
X13731240Y-25341551D01*
X13731240Y-24094440D01*
X13726199Y-24043026D01*
X13721704Y-23991649D01*
X13720885Y-23988830D01*
X13720598Y-23985902D01*
X13705673Y-23936470D01*
X13691278Y-23886920D01*
X13689925Y-23884310D01*
X13689076Y-23881498D01*
X13664854Y-23835943D01*
X13641089Y-23790096D01*
X13639255Y-23787799D01*
X13637876Y-23785205D01*
X13605265Y-23745220D01*
X13573050Y-23704864D01*
X13569019Y-23700777D01*
X13568948Y-23700690D01*
X13568867Y-23700623D01*
X13567571Y-23699309D01*
X12635100Y-22766838D01*
X12635100Y-22573633D01*
X12713678Y-22628246D01*
X12848333Y-22687075D01*
X12991851Y-22718630D01*
X13138764Y-22721707D01*
X13283477Y-22696190D01*
X13420477Y-22643051D01*
X13544548Y-22564314D01*
X13650961Y-22462977D01*
X13735665Y-22342902D01*
X13795433Y-22208660D01*
X13827989Y-22065367D01*
X13830333Y-21897527D01*
X13801791Y-21753380D01*
X13745794Y-21617523D01*
X13735100Y-21601427D01*
X13735100Y-18061662D01*
X13813640Y-18009908D01*
X13892837Y-17916986D01*
X13943011Y-17805679D01*
X13960189Y-17684800D01*
X13960189Y-16951600D01*
X18536300Y-16951600D01*
X18583749Y-16946948D01*
X18631265Y-16942623D01*
X18632969Y-16942121D01*
X18634738Y-16941948D01*
X18680374Y-16928170D01*
X18726151Y-16914697D01*
X18727728Y-16913873D01*
X18729426Y-16913360D01*
X18771494Y-16890992D01*
X18813805Y-16868872D01*
X18815191Y-16867758D01*
X18816759Y-16866924D01*
X18853708Y-16836789D01*
X18890889Y-16806895D01*
X18892031Y-16805534D01*
X18893409Y-16804410D01*
X18923800Y-16767673D01*
X18954468Y-16731125D01*
X18955325Y-16729566D01*
X18956456Y-16728199D01*
X18979108Y-16686304D01*
X19002118Y-16644450D01*
X19002656Y-16642754D01*
X19003500Y-16641193D01*
X19017599Y-16595647D01*
X19032025Y-16550170D01*
X19032223Y-16548405D01*
X19032749Y-16546706D01*
X19037737Y-16499251D01*
X19043051Y-16451876D01*
X19043075Y-16448465D01*
X19043088Y-16448338D01*
X19043076Y-16448210D01*
X19043100Y-16444800D01*
X19043100Y-7665800D01*
X19618750Y-7665800D01*
X19702018Y-7649237D01*
X19780455Y-7616747D01*
X19851047Y-7569579D01*
X19911080Y-7509546D01*
X19958247Y-7438955D01*
X19990737Y-7360518D01*
X20007300Y-7277250D01*
X20007300Y-6367550D01*
X19899550Y-6259800D01*
X19043100Y-6259800D01*
X19043100Y-6209800D01*
X19899550Y-6209800D01*
X20007300Y-6102050D01*
X20007300Y-5192350D01*
X19990737Y-5109082D01*
X19958247Y-5030645D01*
X19911080Y-4960054D01*
X19851047Y-4900021D01*
X19780455Y-4852853D01*
X19702018Y-4820363D01*
X19618750Y-4803800D01*
X19043100Y-4803800D01*
X19043100Y-551600D01*
X21529500Y-551600D01*
X21529500Y-17538000D01*
G36*
X7701300Y-16959800D02*
X7721300Y-16959800D01*
X7721300Y-17009800D01*
X7701300Y-17009800D01*
X7701300Y-18008050D01*
X7809050Y-18115800D01*
X8068750Y-18115800D01*
X8152018Y-18099237D01*
X8217500Y-18072113D01*
X8217500Y-18408402D01*
X8186225Y-18439028D01*
X8103206Y-18560275D01*
X8045318Y-18695338D01*
X8014766Y-18839072D01*
X8012715Y-18986003D01*
X8039241Y-19130535D01*
X8093335Y-19267161D01*
X8172937Y-19390678D01*
X8275014Y-19496382D01*
X8395678Y-19580246D01*
X8530333Y-19639075D01*
X8673851Y-19670630D01*
X8820764Y-19673707D01*
X8965477Y-19648190D01*
X9102477Y-19595051D01*
X9226548Y-19516314D01*
X9266700Y-19478077D01*
X9266700Y-19963202D01*
X9185418Y-19978708D01*
X9049172Y-20033754D01*
X8926214Y-20114216D01*
X8821225Y-20217028D01*
X8738206Y-20338275D01*
X8680318Y-20473338D01*
X8649766Y-20617072D01*
X8647715Y-20764003D01*
X8674241Y-20908535D01*
X8728335Y-21045161D01*
X8807937Y-21168678D01*
X8910014Y-21274382D01*
X9030678Y-21358246D01*
X9165333Y-21417075D01*
X9308851Y-21448630D01*
X9455764Y-21451707D01*
X9600477Y-21426190D01*
X9737477Y-21373051D01*
X9861548Y-21294314D01*
X9967961Y-21192977D01*
X10052665Y-21072902D01*
X10112433Y-20938660D01*
X10138889Y-20822216D01*
X10307352Y-20653753D01*
X10343090Y-20610244D01*
X10379289Y-20567104D01*
X10380833Y-20564295D01*
X10382868Y-20561818D01*
X10409474Y-20512199D01*
X10417500Y-20497599D01*
X10417500Y-21358715D01*
X10328418Y-21375708D01*
X10192172Y-21430754D01*
X10069214Y-21511216D01*
X9964225Y-21614028D01*
X9881206Y-21735275D01*
X9823318Y-21870338D01*
X9792766Y-22014072D01*
X9790715Y-22161003D01*
X9817241Y-22305535D01*
X9871335Y-22442161D01*
X9950937Y-22565678D01*
X10053014Y-22671382D01*
X10173678Y-22755246D01*
X10308333Y-22814075D01*
X10451851Y-22845630D01*
X10598764Y-22848707D01*
X10743477Y-22823190D01*
X10880477Y-22770051D01*
X11004548Y-22691314D01*
X11110961Y-22589977D01*
X11195665Y-22469902D01*
X11255433Y-22335660D01*
X11287989Y-22192367D01*
X11288713Y-22140549D01*
X11371431Y-22057831D01*
X11404184Y-22017957D01*
X11437373Y-21978404D01*
X11438789Y-21975829D01*
X11440654Y-21973558D01*
X11465021Y-21928112D01*
X11489913Y-21882835D01*
X11490803Y-21880028D01*
X11492189Y-21877444D01*
X11507256Y-21828162D01*
X11517500Y-21795869D01*
X11517500Y-22998300D01*
X11522541Y-23049714D01*
X11527036Y-23101091D01*
X11527855Y-23103910D01*
X11528142Y-23106838D01*
X11543067Y-23156270D01*
X11557462Y-23205820D01*
X11558815Y-23208430D01*
X11559664Y-23211242D01*
X11583886Y-23256797D01*
X11607651Y-23302644D01*
X11609485Y-23304941D01*
X11610864Y-23307535D01*
X11643475Y-23347520D01*
X11675690Y-23387876D01*
X11679721Y-23391963D01*
X11679792Y-23392050D01*
X11679873Y-23392117D01*
X11681169Y-23393431D01*
X12613640Y-24325902D01*
X12613640Y-25341551D01*
X12585700Y-25341551D01*
X12516937Y-25347034D01*
X12464915Y-25363145D01*
X12455119Y-25358729D01*
X12334240Y-25341551D01*
X12306300Y-25341551D01*
X12306300Y-25201077D01*
X12380961Y-25129977D01*
X12465665Y-25009902D01*
X12525433Y-24875660D01*
X12557989Y-24732367D01*
X12560333Y-24564527D01*
X12531791Y-24420380D01*
X12475794Y-24284523D01*
X12394476Y-24162129D01*
X12290933Y-24057861D01*
X12169110Y-23975690D01*
X12033646Y-23918746D01*
X11889702Y-23889199D01*
X11742760Y-23888173D01*
X11598418Y-23915708D01*
X11462172Y-23970754D01*
X11339214Y-24051216D01*
X11234225Y-24154028D01*
X11151206Y-24275275D01*
X11093318Y-24410338D01*
X11062766Y-24554072D01*
X11060715Y-24701003D01*
X11087241Y-24845535D01*
X11141335Y-24982161D01*
X11188700Y-25055656D01*
X11188700Y-25341551D01*
X11160760Y-25341551D01*
X11091997Y-25347034D01*
X11041480Y-25362678D01*
X11032719Y-25358729D01*
X10911840Y-25341551D01*
X10883900Y-25341551D01*
X10883900Y-24041100D01*
X10878859Y-23989682D01*
X10874364Y-23938309D01*
X10873545Y-23935490D01*
X10873258Y-23932562D01*
X10858333Y-23883130D01*
X10843938Y-23833580D01*
X10842585Y-23830970D01*
X10841736Y-23828158D01*
X10817514Y-23782603D01*
X10793749Y-23736756D01*
X10791915Y-23734459D01*
X10790536Y-23731865D01*
X10757925Y-23691880D01*
X10725710Y-23651524D01*
X10721679Y-23647437D01*
X10721608Y-23647350D01*
X10721527Y-23647283D01*
X10720231Y-23645969D01*
X6357140Y-19282878D01*
X6387851Y-19289630D01*
X6534764Y-19292707D01*
X6679477Y-19267190D01*
X6816477Y-19214051D01*
X6940548Y-19135314D01*
X7046961Y-19033977D01*
X7131665Y-18913902D01*
X7191433Y-18779660D01*
X7223989Y-18636367D01*
X7226333Y-18468527D01*
X7197791Y-18324380D01*
X7141794Y-18188523D01*
X7135100Y-18178448D01*
X7135100Y-18072113D01*
X7200582Y-18099237D01*
X7283850Y-18115800D01*
X7543550Y-18115800D01*
X7651300Y-18008050D01*
X7651300Y-17009800D01*
X7631300Y-17009800D01*
X7631300Y-16959800D01*
X7651300Y-16959800D01*
X7651300Y-16951600D01*
X7701300Y-16951600D01*
X7701300Y-16959800D01*
X7701300Y-16959800D01*
G37*
X7701300Y-16959800D02*
X7721300Y-16959800D01*
X7721300Y-17009800D01*
X7701300Y-17009800D01*
X7701300Y-18008050D01*
X7809050Y-18115800D01*
X8068750Y-18115800D01*
X8152018Y-18099237D01*
X8217500Y-18072113D01*
X8217500Y-18408402D01*
X8186225Y-18439028D01*
X8103206Y-18560275D01*
X8045318Y-18695338D01*
X8014766Y-18839072D01*
X8012715Y-18986003D01*
X8039241Y-19130535D01*
X8093335Y-19267161D01*
X8172937Y-19390678D01*
X8275014Y-19496382D01*
X8395678Y-19580246D01*
X8530333Y-19639075D01*
X8673851Y-19670630D01*
X8820764Y-19673707D01*
X8965477Y-19648190D01*
X9102477Y-19595051D01*
X9226548Y-19516314D01*
X9266700Y-19478077D01*
X9266700Y-19963202D01*
X9185418Y-19978708D01*
X9049172Y-20033754D01*
X8926214Y-20114216D01*
X8821225Y-20217028D01*
X8738206Y-20338275D01*
X8680318Y-20473338D01*
X8649766Y-20617072D01*
X8647715Y-20764003D01*
X8674241Y-20908535D01*
X8728335Y-21045161D01*
X8807937Y-21168678D01*
X8910014Y-21274382D01*
X9030678Y-21358246D01*
X9165333Y-21417075D01*
X9308851Y-21448630D01*
X9455764Y-21451707D01*
X9600477Y-21426190D01*
X9737477Y-21373051D01*
X9861548Y-21294314D01*
X9967961Y-21192977D01*
X10052665Y-21072902D01*
X10112433Y-20938660D01*
X10138889Y-20822216D01*
X10307352Y-20653753D01*
X10343090Y-20610244D01*
X10379289Y-20567104D01*
X10380833Y-20564295D01*
X10382868Y-20561818D01*
X10409474Y-20512199D01*
X10417500Y-20497599D01*
X10417500Y-21358715D01*
X10328418Y-21375708D01*
X10192172Y-21430754D01*
X10069214Y-21511216D01*
X9964225Y-21614028D01*
X9881206Y-21735275D01*
X9823318Y-21870338D01*
X9792766Y-22014072D01*
X9790715Y-22161003D01*
X9817241Y-22305535D01*
X9871335Y-22442161D01*
X9950937Y-22565678D01*
X10053014Y-22671382D01*
X10173678Y-22755246D01*
X10308333Y-22814075D01*
X10451851Y-22845630D01*
X10598764Y-22848707D01*
X10743477Y-22823190D01*
X10880477Y-22770051D01*
X11004548Y-22691314D01*
X11110961Y-22589977D01*
X11195665Y-22469902D01*
X11255433Y-22335660D01*
X11287989Y-22192367D01*
X11288713Y-22140549D01*
X11371431Y-22057831D01*
X11404184Y-22017957D01*
X11437373Y-21978404D01*
X11438789Y-21975829D01*
X11440654Y-21973558D01*
X11465021Y-21928112D01*
X11489913Y-21882835D01*
X11490803Y-21880028D01*
X11492189Y-21877444D01*
X11507256Y-21828162D01*
X11517500Y-21795869D01*
X11517500Y-22998300D01*
X11522541Y-23049714D01*
X11527036Y-23101091D01*
X11527855Y-23103910D01*
X11528142Y-23106838D01*
X11543067Y-23156270D01*
X11557462Y-23205820D01*
X11558815Y-23208430D01*
X11559664Y-23211242D01*
X11583886Y-23256797D01*
X11607651Y-23302644D01*
X11609485Y-23304941D01*
X11610864Y-23307535D01*
X11643475Y-23347520D01*
X11675690Y-23387876D01*
X11679721Y-23391963D01*
X11679792Y-23392050D01*
X11679873Y-23392117D01*
X11681169Y-23393431D01*
X12613640Y-24325902D01*
X12613640Y-25341551D01*
X12585700Y-25341551D01*
X12516937Y-25347034D01*
X12464915Y-25363145D01*
X12455119Y-25358729D01*
X12334240Y-25341551D01*
X12306300Y-25341551D01*
X12306300Y-25201077D01*
X12380961Y-25129977D01*
X12465665Y-25009902D01*
X12525433Y-24875660D01*
X12557989Y-24732367D01*
X12560333Y-24564527D01*
X12531791Y-24420380D01*
X12475794Y-24284523D01*
X12394476Y-24162129D01*
X12290933Y-24057861D01*
X12169110Y-23975690D01*
X12033646Y-23918746D01*
X11889702Y-23889199D01*
X11742760Y-23888173D01*
X11598418Y-23915708D01*
X11462172Y-23970754D01*
X11339214Y-24051216D01*
X11234225Y-24154028D01*
X11151206Y-24275275D01*
X11093318Y-24410338D01*
X11062766Y-24554072D01*
X11060715Y-24701003D01*
X11087241Y-24845535D01*
X11141335Y-24982161D01*
X11188700Y-25055656D01*
X11188700Y-25341551D01*
X11160760Y-25341551D01*
X11091997Y-25347034D01*
X11041480Y-25362678D01*
X11032719Y-25358729D01*
X10911840Y-25341551D01*
X10883900Y-25341551D01*
X10883900Y-24041100D01*
X10878859Y-23989682D01*
X10874364Y-23938309D01*
X10873545Y-23935490D01*
X10873258Y-23932562D01*
X10858333Y-23883130D01*
X10843938Y-23833580D01*
X10842585Y-23830970D01*
X10841736Y-23828158D01*
X10817514Y-23782603D01*
X10793749Y-23736756D01*
X10791915Y-23734459D01*
X10790536Y-23731865D01*
X10757925Y-23691880D01*
X10725710Y-23651524D01*
X10721679Y-23647437D01*
X10721608Y-23647350D01*
X10721527Y-23647283D01*
X10720231Y-23645969D01*
X6357140Y-19282878D01*
X6387851Y-19289630D01*
X6534764Y-19292707D01*
X6679477Y-19267190D01*
X6816477Y-19214051D01*
X6940548Y-19135314D01*
X7046961Y-19033977D01*
X7131665Y-18913902D01*
X7191433Y-18779660D01*
X7223989Y-18636367D01*
X7226333Y-18468527D01*
X7197791Y-18324380D01*
X7141794Y-18188523D01*
X7135100Y-18178448D01*
X7135100Y-18072113D01*
X7200582Y-18099237D01*
X7283850Y-18115800D01*
X7543550Y-18115800D01*
X7651300Y-18008050D01*
X7651300Y-17009800D01*
X7631300Y-17009800D01*
X7631300Y-16959800D01*
X7651300Y-16959800D01*
X7651300Y-16951600D01*
X7701300Y-16951600D01*
X7701300Y-16959800D01*
M02*
