G75*
%MOIN*%
%OFA0B0*%
%FSLAX25Y25*%
%IPPOS*%
%LPD*%
%AMOC8*
5,1,8,0,0,1.08239X$1,22.5*
%
%ADD10C,0.00787*%
%ADD11C,0.00500*%
%ADD12C,0.00000*%
%ADD13C,0.00400*%
D10*
X0013311Y0001500D02*
X0013311Y0052681D01*
X0001500Y0052681D01*
X0001500Y0123547D01*
X0014886Y0123547D01*
X0014886Y0058980D01*
X0074335Y0058980D01*
X0074335Y0123547D01*
X0088114Y0123547D01*
X0088114Y0052681D01*
X0076303Y0052681D01*
X0076303Y0001500D01*
X0013311Y0001500D01*
D11*
X0015437Y0059413D02*
X0073705Y0059413D01*
X0073705Y0117681D01*
X0061894Y0117681D01*
X0050083Y0114531D01*
X0015437Y0114531D01*
X0015437Y0059413D01*
D12*
X0022819Y0100752D02*
X0022821Y0100851D01*
X0022827Y0100950D01*
X0022837Y0101049D01*
X0022851Y0101147D01*
X0022869Y0101244D01*
X0022891Y0101341D01*
X0022916Y0101437D01*
X0022946Y0101531D01*
X0022979Y0101625D01*
X0023016Y0101717D01*
X0023057Y0101807D01*
X0023101Y0101896D01*
X0023149Y0101982D01*
X0023200Y0102067D01*
X0023255Y0102150D01*
X0023313Y0102230D01*
X0023374Y0102308D01*
X0023438Y0102384D01*
X0023505Y0102457D01*
X0023575Y0102527D01*
X0023648Y0102594D01*
X0023724Y0102658D01*
X0023802Y0102719D01*
X0023882Y0102777D01*
X0023965Y0102832D01*
X0024049Y0102883D01*
X0024136Y0102931D01*
X0024225Y0102975D01*
X0024315Y0103016D01*
X0024407Y0103053D01*
X0024501Y0103086D01*
X0024595Y0103116D01*
X0024691Y0103141D01*
X0024788Y0103163D01*
X0024885Y0103181D01*
X0024983Y0103195D01*
X0025082Y0103205D01*
X0025181Y0103211D01*
X0025280Y0103213D01*
X0025379Y0103211D01*
X0025478Y0103205D01*
X0025577Y0103195D01*
X0025675Y0103181D01*
X0025772Y0103163D01*
X0025869Y0103141D01*
X0025965Y0103116D01*
X0026059Y0103086D01*
X0026153Y0103053D01*
X0026245Y0103016D01*
X0026335Y0102975D01*
X0026424Y0102931D01*
X0026510Y0102883D01*
X0026595Y0102832D01*
X0026678Y0102777D01*
X0026758Y0102719D01*
X0026836Y0102658D01*
X0026912Y0102594D01*
X0026985Y0102527D01*
X0027055Y0102457D01*
X0027122Y0102384D01*
X0027186Y0102308D01*
X0027247Y0102230D01*
X0027305Y0102150D01*
X0027360Y0102067D01*
X0027411Y0101983D01*
X0027459Y0101896D01*
X0027503Y0101807D01*
X0027544Y0101717D01*
X0027581Y0101625D01*
X0027614Y0101531D01*
X0027644Y0101437D01*
X0027669Y0101341D01*
X0027691Y0101244D01*
X0027709Y0101147D01*
X0027723Y0101049D01*
X0027733Y0100950D01*
X0027739Y0100851D01*
X0027741Y0100752D01*
X0027739Y0100653D01*
X0027733Y0100554D01*
X0027723Y0100455D01*
X0027709Y0100357D01*
X0027691Y0100260D01*
X0027669Y0100163D01*
X0027644Y0100067D01*
X0027614Y0099973D01*
X0027581Y0099879D01*
X0027544Y0099787D01*
X0027503Y0099697D01*
X0027459Y0099608D01*
X0027411Y0099522D01*
X0027360Y0099437D01*
X0027305Y0099354D01*
X0027247Y0099274D01*
X0027186Y0099196D01*
X0027122Y0099120D01*
X0027055Y0099047D01*
X0026985Y0098977D01*
X0026912Y0098910D01*
X0026836Y0098846D01*
X0026758Y0098785D01*
X0026678Y0098727D01*
X0026595Y0098672D01*
X0026511Y0098621D01*
X0026424Y0098573D01*
X0026335Y0098529D01*
X0026245Y0098488D01*
X0026153Y0098451D01*
X0026059Y0098418D01*
X0025965Y0098388D01*
X0025869Y0098363D01*
X0025772Y0098341D01*
X0025675Y0098323D01*
X0025577Y0098309D01*
X0025478Y0098299D01*
X0025379Y0098293D01*
X0025280Y0098291D01*
X0025181Y0098293D01*
X0025082Y0098299D01*
X0024983Y0098309D01*
X0024885Y0098323D01*
X0024788Y0098341D01*
X0024691Y0098363D01*
X0024595Y0098388D01*
X0024501Y0098418D01*
X0024407Y0098451D01*
X0024315Y0098488D01*
X0024225Y0098529D01*
X0024136Y0098573D01*
X0024050Y0098621D01*
X0023965Y0098672D01*
X0023882Y0098727D01*
X0023802Y0098785D01*
X0023724Y0098846D01*
X0023648Y0098910D01*
X0023575Y0098977D01*
X0023505Y0099047D01*
X0023438Y0099120D01*
X0023374Y0099196D01*
X0023313Y0099274D01*
X0023255Y0099354D01*
X0023200Y0099437D01*
X0023149Y0099521D01*
X0023101Y0099608D01*
X0023057Y0099697D01*
X0023016Y0099787D01*
X0022979Y0099879D01*
X0022946Y0099973D01*
X0022916Y0100067D01*
X0022891Y0100163D01*
X0022869Y0100260D01*
X0022851Y0100357D01*
X0022837Y0100455D01*
X0022827Y0100554D01*
X0022821Y0100653D01*
X0022819Y0100752D01*
X0054315Y0100752D02*
X0054317Y0100851D01*
X0054323Y0100950D01*
X0054333Y0101049D01*
X0054347Y0101147D01*
X0054365Y0101244D01*
X0054387Y0101341D01*
X0054412Y0101437D01*
X0054442Y0101531D01*
X0054475Y0101625D01*
X0054512Y0101717D01*
X0054553Y0101807D01*
X0054597Y0101896D01*
X0054645Y0101982D01*
X0054696Y0102067D01*
X0054751Y0102150D01*
X0054809Y0102230D01*
X0054870Y0102308D01*
X0054934Y0102384D01*
X0055001Y0102457D01*
X0055071Y0102527D01*
X0055144Y0102594D01*
X0055220Y0102658D01*
X0055298Y0102719D01*
X0055378Y0102777D01*
X0055461Y0102832D01*
X0055545Y0102883D01*
X0055632Y0102931D01*
X0055721Y0102975D01*
X0055811Y0103016D01*
X0055903Y0103053D01*
X0055997Y0103086D01*
X0056091Y0103116D01*
X0056187Y0103141D01*
X0056284Y0103163D01*
X0056381Y0103181D01*
X0056479Y0103195D01*
X0056578Y0103205D01*
X0056677Y0103211D01*
X0056776Y0103213D01*
X0056875Y0103211D01*
X0056974Y0103205D01*
X0057073Y0103195D01*
X0057171Y0103181D01*
X0057268Y0103163D01*
X0057365Y0103141D01*
X0057461Y0103116D01*
X0057555Y0103086D01*
X0057649Y0103053D01*
X0057741Y0103016D01*
X0057831Y0102975D01*
X0057920Y0102931D01*
X0058006Y0102883D01*
X0058091Y0102832D01*
X0058174Y0102777D01*
X0058254Y0102719D01*
X0058332Y0102658D01*
X0058408Y0102594D01*
X0058481Y0102527D01*
X0058551Y0102457D01*
X0058618Y0102384D01*
X0058682Y0102308D01*
X0058743Y0102230D01*
X0058801Y0102150D01*
X0058856Y0102067D01*
X0058907Y0101983D01*
X0058955Y0101896D01*
X0058999Y0101807D01*
X0059040Y0101717D01*
X0059077Y0101625D01*
X0059110Y0101531D01*
X0059140Y0101437D01*
X0059165Y0101341D01*
X0059187Y0101244D01*
X0059205Y0101147D01*
X0059219Y0101049D01*
X0059229Y0100950D01*
X0059235Y0100851D01*
X0059237Y0100752D01*
X0059235Y0100653D01*
X0059229Y0100554D01*
X0059219Y0100455D01*
X0059205Y0100357D01*
X0059187Y0100260D01*
X0059165Y0100163D01*
X0059140Y0100067D01*
X0059110Y0099973D01*
X0059077Y0099879D01*
X0059040Y0099787D01*
X0058999Y0099697D01*
X0058955Y0099608D01*
X0058907Y0099522D01*
X0058856Y0099437D01*
X0058801Y0099354D01*
X0058743Y0099274D01*
X0058682Y0099196D01*
X0058618Y0099120D01*
X0058551Y0099047D01*
X0058481Y0098977D01*
X0058408Y0098910D01*
X0058332Y0098846D01*
X0058254Y0098785D01*
X0058174Y0098727D01*
X0058091Y0098672D01*
X0058007Y0098621D01*
X0057920Y0098573D01*
X0057831Y0098529D01*
X0057741Y0098488D01*
X0057649Y0098451D01*
X0057555Y0098418D01*
X0057461Y0098388D01*
X0057365Y0098363D01*
X0057268Y0098341D01*
X0057171Y0098323D01*
X0057073Y0098309D01*
X0056974Y0098299D01*
X0056875Y0098293D01*
X0056776Y0098291D01*
X0056677Y0098293D01*
X0056578Y0098299D01*
X0056479Y0098309D01*
X0056381Y0098323D01*
X0056284Y0098341D01*
X0056187Y0098363D01*
X0056091Y0098388D01*
X0055997Y0098418D01*
X0055903Y0098451D01*
X0055811Y0098488D01*
X0055721Y0098529D01*
X0055632Y0098573D01*
X0055546Y0098621D01*
X0055461Y0098672D01*
X0055378Y0098727D01*
X0055298Y0098785D01*
X0055220Y0098846D01*
X0055144Y0098910D01*
X0055071Y0098977D01*
X0055001Y0099047D01*
X0054934Y0099120D01*
X0054870Y0099196D01*
X0054809Y0099274D01*
X0054751Y0099354D01*
X0054696Y0099437D01*
X0054645Y0099521D01*
X0054597Y0099608D01*
X0054553Y0099697D01*
X0054512Y0099787D01*
X0054475Y0099879D01*
X0054442Y0099973D01*
X0054412Y0100067D01*
X0054387Y0100163D01*
X0054365Y0100260D01*
X0054347Y0100357D01*
X0054333Y0100455D01*
X0054323Y0100554D01*
X0054317Y0100653D01*
X0054315Y0100752D01*
D13*
X0061543Y0060044D02*
X0064612Y0060044D01*
X0066146Y0060044D02*
X0068448Y0060044D01*
X0069216Y0059277D01*
X0069216Y0057742D01*
X0068448Y0056975D01*
X0066146Y0056975D01*
X0066146Y0055440D02*
X0066146Y0060044D01*
X0063077Y0060044D02*
X0063077Y0055440D01*
X0067054Y0049808D02*
X0070124Y0049808D01*
X0071658Y0049808D02*
X0073960Y0049808D01*
X0074728Y0049041D01*
X0074728Y0047506D01*
X0073960Y0046739D01*
X0071658Y0046739D01*
X0071658Y0045204D02*
X0071658Y0049808D01*
X0068589Y0049808D02*
X0068589Y0045204D01*
X0073052Y0055440D02*
X0073052Y0060044D01*
X0070750Y0057742D01*
X0073820Y0057742D01*
X0077029Y0049808D02*
X0078564Y0049808D01*
X0079331Y0049041D01*
X0079331Y0048273D01*
X0078564Y0047506D01*
X0077029Y0047506D01*
X0076262Y0048273D01*
X0076262Y0049041D01*
X0077029Y0049808D01*
X0077029Y0047506D02*
X0076262Y0046739D01*
X0076262Y0045971D01*
X0077029Y0045204D01*
X0078564Y0045204D01*
X0079331Y0045971D01*
X0079331Y0046739D01*
X0078564Y0047506D01*
X0027363Y0043509D02*
X0027363Y0042741D01*
X0024294Y0039672D01*
X0024294Y0038905D01*
X0022759Y0041207D02*
X0021992Y0040439D01*
X0019690Y0040439D01*
X0019690Y0038905D02*
X0019690Y0043509D01*
X0021992Y0043509D01*
X0022759Y0042741D01*
X0022759Y0041207D01*
X0024294Y0043509D02*
X0027363Y0043509D01*
X0026596Y0051503D02*
X0025061Y0051503D01*
X0024294Y0052270D01*
X0025828Y0053805D02*
X0026596Y0053805D01*
X0027363Y0053038D01*
X0027363Y0052270D01*
X0026596Y0051503D01*
X0026596Y0053805D02*
X0027363Y0054572D01*
X0027363Y0055340D01*
X0026596Y0056107D01*
X0025061Y0056107D01*
X0024294Y0055340D01*
X0022759Y0055340D02*
X0022759Y0053805D01*
X0021992Y0053038D01*
X0019690Y0053038D01*
X0019690Y0051503D02*
X0019690Y0056107D01*
X0021992Y0056107D01*
X0022759Y0055340D01*
X0018155Y0056107D02*
X0015086Y0056107D01*
X0016620Y0056107D02*
X0016620Y0051503D01*
X0016620Y0043509D02*
X0016620Y0038905D01*
X0015086Y0043509D02*
X0018155Y0043509D01*
M02*
