G75*
%MOIN*%
%OFA0B0*%
%FSLAX25Y25*%
%IPPOS*%
%LPD*%
%AMOC8*
5,1,8,0,0,1.08239X$1,22.5*
%
%ADD10C,0.07874*%
%ADD11C,0.04165*%
%ADD12C,0.01000*%
D10*
X0018823Y0041264D03*
X0038902Y0015280D03*
X0050713Y0014886D03*
X0060161Y0042051D03*
D11*
X0066854Y0032602D03*
X0057012Y0029059D03*
X0052287Y0037327D03*
X0047957Y0044807D03*
X0040083Y0040673D03*
X0036539Y0036933D03*
X0043626Y0030240D03*
X0032209Y0050713D03*
X0027091Y0046382D03*
X0027091Y0034177D03*
X0026697Y0025909D03*
X0018823Y0026697D03*
X0008193Y0068429D03*
X0081028Y0068035D03*
D12*
X0015405Y0036710D02*
X0015405Y0003594D01*
X0074209Y0003594D01*
X0074209Y0053548D01*
X0075436Y0054775D01*
X0086020Y0054775D01*
X0086020Y0121454D01*
X0076428Y0121454D01*
X0076428Y0058113D01*
X0075202Y0056887D01*
X0014019Y0056887D01*
X0012792Y0058113D01*
X0012792Y0121454D01*
X0003594Y0121454D01*
X0003594Y0054775D01*
X0014178Y0054775D01*
X0015405Y0053548D01*
X0015405Y0045818D01*
X0015630Y0046043D01*
X0017702Y0046901D01*
X0019944Y0046901D01*
X0022016Y0046043D01*
X0023602Y0044457D01*
X0024013Y0043464D01*
X0024659Y0043464D01*
X0023884Y0044239D01*
X0023308Y0045629D01*
X0023308Y0047134D01*
X0023884Y0048525D01*
X0024948Y0049589D01*
X0026338Y0050165D01*
X0027843Y0050165D01*
X0029233Y0049589D01*
X0030297Y0048525D01*
X0030873Y0047134D01*
X0030873Y0045629D01*
X0030297Y0044239D01*
X0029291Y0043232D01*
X0029291Y0037327D01*
X0030297Y0036320D01*
X0030873Y0034930D01*
X0030873Y0033425D01*
X0030297Y0032034D01*
X0029233Y0030970D01*
X0027843Y0030394D01*
X0026338Y0030394D01*
X0024948Y0030970D01*
X0023884Y0032034D01*
X0023308Y0033425D01*
X0023308Y0034930D01*
X0023884Y0036320D01*
X0024891Y0037327D01*
X0024891Y0039064D01*
X0024013Y0039064D01*
X0023602Y0038071D01*
X0022016Y0036485D01*
X0019944Y0035627D01*
X0017702Y0035627D01*
X0015630Y0036485D01*
X0015405Y0036710D01*
X0015405Y0036675D02*
X0015439Y0036675D01*
X0015405Y0035677D02*
X0017581Y0035677D01*
X0015405Y0034678D02*
X0023308Y0034678D01*
X0023308Y0033680D02*
X0015405Y0033680D01*
X0015405Y0032681D02*
X0023616Y0032681D01*
X0024235Y0031683D02*
X0015405Y0031683D01*
X0015405Y0030684D02*
X0025639Y0030684D01*
X0025944Y0029692D02*
X0024554Y0029116D01*
X0023490Y0028052D01*
X0022914Y0026662D01*
X0022914Y0025157D01*
X0023490Y0023767D01*
X0024554Y0022703D01*
X0025944Y0022127D01*
X0027449Y0022127D01*
X0028840Y0022703D01*
X0029846Y0023709D01*
X0037095Y0023709D01*
X0037095Y0020633D01*
X0035708Y0020058D01*
X0034123Y0018473D01*
X0033265Y0016401D01*
X0033265Y0014158D01*
X0034123Y0012086D01*
X0035708Y0010501D01*
X0037780Y0009643D01*
X0040023Y0009643D01*
X0042095Y0010501D01*
X0043680Y0012086D01*
X0044539Y0014158D01*
X0044539Y0016401D01*
X0043680Y0018473D01*
X0042095Y0020058D01*
X0041495Y0020307D01*
X0041495Y0024998D01*
X0042955Y0026457D01*
X0044378Y0026457D01*
X0045769Y0027033D01*
X0046833Y0028097D01*
X0047011Y0028528D01*
X0048119Y0027420D01*
X0048119Y0019913D01*
X0047519Y0019665D01*
X0045934Y0018079D01*
X0045076Y0016007D01*
X0045076Y0013765D01*
X0045934Y0011693D01*
X0047519Y0010107D01*
X0049591Y0009249D01*
X0051834Y0009249D01*
X0053906Y0010107D01*
X0055491Y0011693D01*
X0056350Y0013765D01*
X0056350Y0016007D01*
X0055491Y0018079D01*
X0053906Y0019665D01*
X0052519Y0020239D01*
X0052519Y0026859D01*
X0053862Y0026859D01*
X0054869Y0025852D01*
X0056259Y0025276D01*
X0057764Y0025276D01*
X0059155Y0025852D01*
X0060219Y0026916D01*
X0060794Y0028307D01*
X0060794Y0029811D01*
X0060550Y0030402D01*
X0063705Y0030402D01*
X0064712Y0029396D01*
X0066102Y0028820D01*
X0067607Y0028820D01*
X0068997Y0029396D01*
X0070061Y0030460D01*
X0070637Y0031850D01*
X0070637Y0033355D01*
X0070061Y0034745D01*
X0068997Y0035809D01*
X0067607Y0036385D01*
X0066102Y0036385D01*
X0064712Y0035809D01*
X0063705Y0034802D01*
X0055112Y0034802D01*
X0055494Y0035184D01*
X0056070Y0036574D01*
X0056070Y0038079D01*
X0056005Y0038235D01*
X0056968Y0037272D01*
X0059040Y0036414D01*
X0061283Y0036414D01*
X0063355Y0037272D01*
X0064940Y0038858D01*
X0065798Y0040930D01*
X0065798Y0043172D01*
X0064940Y0045244D01*
X0063355Y0046830D01*
X0061283Y0047688D01*
X0059040Y0047688D01*
X0056968Y0046830D01*
X0055383Y0045244D01*
X0054524Y0043172D01*
X0054524Y0042676D01*
X0053199Y0042676D01*
X0051739Y0044136D01*
X0051739Y0045560D01*
X0051163Y0046950D01*
X0050099Y0048014D01*
X0048709Y0048590D01*
X0047204Y0048590D01*
X0045814Y0048014D01*
X0044750Y0046950D01*
X0044174Y0045560D01*
X0044174Y0044055D01*
X0044750Y0042664D01*
X0045814Y0041600D01*
X0047204Y0041024D01*
X0048628Y0041024D01*
X0049632Y0040021D01*
X0049081Y0039469D01*
X0048505Y0038079D01*
X0048505Y0037921D01*
X0048188Y0038238D01*
X0046899Y0039527D01*
X0044340Y0039527D01*
X0043865Y0040002D01*
X0043865Y0041426D01*
X0043289Y0042816D01*
X0042225Y0043880D01*
X0040835Y0044456D01*
X0039330Y0044456D01*
X0037940Y0043880D01*
X0036876Y0042816D01*
X0036300Y0041426D01*
X0036300Y0040716D01*
X0035787Y0040716D01*
X0034397Y0040140D01*
X0033333Y0039076D01*
X0032757Y0037685D01*
X0032757Y0036181D01*
X0033333Y0034790D01*
X0034397Y0033726D01*
X0035787Y0033150D01*
X0037211Y0033150D01*
X0037650Y0032712D01*
X0038938Y0031423D01*
X0040022Y0031423D01*
X0039843Y0030993D01*
X0039843Y0029569D01*
X0038384Y0028109D01*
X0029846Y0028109D01*
X0028840Y0029116D01*
X0027449Y0029692D01*
X0025944Y0029692D01*
X0025929Y0029686D02*
X0015405Y0029686D01*
X0015405Y0028687D02*
X0024125Y0028687D01*
X0023340Y0027689D02*
X0015405Y0027689D01*
X0015405Y0026690D02*
X0022926Y0026690D01*
X0022914Y0025692D02*
X0015405Y0025692D01*
X0015405Y0024693D02*
X0023106Y0024693D01*
X0023562Y0023695D02*
X0015405Y0023695D01*
X0015405Y0022696D02*
X0024570Y0022696D01*
X0026697Y0025909D02*
X0039295Y0025909D01*
X0039295Y0015673D01*
X0038902Y0015280D01*
X0042452Y0019701D02*
X0047606Y0019701D01*
X0048119Y0020699D02*
X0041495Y0020699D01*
X0041495Y0021698D02*
X0048119Y0021698D01*
X0048119Y0022696D02*
X0041495Y0022696D01*
X0041495Y0023695D02*
X0048119Y0023695D01*
X0048119Y0024693D02*
X0041495Y0024693D01*
X0042189Y0025692D02*
X0048119Y0025692D01*
X0048119Y0026690D02*
X0044940Y0026690D01*
X0046424Y0027689D02*
X0047850Y0027689D01*
X0049591Y0029059D02*
X0045027Y0033623D01*
X0039850Y0033623D01*
X0036539Y0036933D01*
X0033928Y0039671D02*
X0029291Y0039671D01*
X0029291Y0040669D02*
X0035675Y0040669D01*
X0036400Y0041668D02*
X0029291Y0041668D01*
X0029291Y0042666D02*
X0036814Y0042666D01*
X0037725Y0043665D02*
X0029723Y0043665D01*
X0030473Y0044663D02*
X0044174Y0044663D01*
X0044216Y0045662D02*
X0030873Y0045662D01*
X0030873Y0046660D02*
X0044630Y0046660D01*
X0045459Y0047659D02*
X0030656Y0047659D01*
X0030164Y0048657D02*
X0074209Y0048657D01*
X0074209Y0047659D02*
X0061353Y0047659D01*
X0063524Y0046660D02*
X0074209Y0046660D01*
X0074209Y0045662D02*
X0064523Y0045662D01*
X0065181Y0044663D02*
X0074209Y0044663D01*
X0074209Y0043665D02*
X0065594Y0043665D01*
X0065798Y0042666D02*
X0074209Y0042666D01*
X0074209Y0041668D02*
X0065798Y0041668D01*
X0065690Y0040669D02*
X0074209Y0040669D01*
X0074209Y0039671D02*
X0065277Y0039671D01*
X0064755Y0038672D02*
X0074209Y0038672D01*
X0074209Y0037674D02*
X0063756Y0037674D01*
X0061913Y0036675D02*
X0074209Y0036675D01*
X0074209Y0035677D02*
X0069129Y0035677D01*
X0070089Y0034678D02*
X0074209Y0034678D01*
X0074209Y0033680D02*
X0070502Y0033680D01*
X0070637Y0032681D02*
X0074209Y0032681D01*
X0074209Y0031683D02*
X0070568Y0031683D01*
X0070154Y0030684D02*
X0074209Y0030684D01*
X0074209Y0029686D02*
X0069287Y0029686D01*
X0066854Y0032602D02*
X0050713Y0032602D01*
X0045988Y0037327D01*
X0043429Y0037327D01*
X0040083Y0040673D01*
X0042440Y0043665D02*
X0044335Y0043665D01*
X0044749Y0042666D02*
X0043351Y0042666D01*
X0043765Y0041668D02*
X0045746Y0041668D01*
X0044196Y0039671D02*
X0049282Y0039671D01*
X0048983Y0040669D02*
X0043865Y0040669D01*
X0047754Y0038672D02*
X0048750Y0038672D01*
X0052287Y0037327D02*
X0052287Y0040476D01*
X0058587Y0040476D01*
X0060161Y0042051D01*
X0058410Y0036675D02*
X0056070Y0036675D01*
X0056070Y0037674D02*
X0056567Y0037674D01*
X0055698Y0035677D02*
X0064579Y0035677D01*
X0064421Y0029686D02*
X0060794Y0029686D01*
X0060794Y0028687D02*
X0074209Y0028687D01*
X0074209Y0027689D02*
X0060539Y0027689D01*
X0059992Y0026690D02*
X0074209Y0026690D01*
X0074209Y0025692D02*
X0058767Y0025692D01*
X0057012Y0029059D02*
X0050319Y0029059D01*
X0050319Y0015280D01*
X0050713Y0014886D01*
X0052961Y0009716D02*
X0074209Y0009716D01*
X0074209Y0010714D02*
X0054513Y0010714D01*
X0055500Y0011713D02*
X0074209Y0011713D01*
X0074209Y0012711D02*
X0055913Y0012711D01*
X0056327Y0013710D02*
X0074209Y0013710D01*
X0074209Y0014708D02*
X0056350Y0014708D01*
X0056350Y0015707D02*
X0074209Y0015707D01*
X0074209Y0016705D02*
X0056060Y0016705D01*
X0055647Y0017704D02*
X0074209Y0017704D01*
X0074209Y0018702D02*
X0054868Y0018702D01*
X0053819Y0019701D02*
X0074209Y0019701D01*
X0074209Y0020699D02*
X0052519Y0020699D01*
X0052519Y0021698D02*
X0074209Y0021698D01*
X0074209Y0022696D02*
X0052519Y0022696D01*
X0052519Y0023695D02*
X0074209Y0023695D01*
X0074209Y0024693D02*
X0052519Y0024693D01*
X0052519Y0025692D02*
X0055257Y0025692D01*
X0054031Y0026690D02*
X0052519Y0026690D01*
X0050319Y0029059D02*
X0049591Y0029059D01*
X0043626Y0030240D02*
X0039295Y0025909D01*
X0038962Y0028687D02*
X0029269Y0028687D01*
X0027465Y0029686D02*
X0039843Y0029686D01*
X0039843Y0030684D02*
X0028543Y0030684D01*
X0029946Y0031683D02*
X0038678Y0031683D01*
X0037680Y0032681D02*
X0030565Y0032681D01*
X0030873Y0033680D02*
X0034509Y0033680D01*
X0033445Y0034678D02*
X0030873Y0034678D01*
X0030564Y0035677D02*
X0032965Y0035677D01*
X0032757Y0036675D02*
X0029942Y0036675D01*
X0029291Y0037674D02*
X0032757Y0037674D01*
X0033165Y0038672D02*
X0029291Y0038672D01*
X0027091Y0040870D02*
X0026697Y0041264D01*
X0018823Y0041264D01*
X0022206Y0036675D02*
X0024239Y0036675D01*
X0023617Y0035677D02*
X0020065Y0035677D01*
X0023205Y0037674D02*
X0024891Y0037674D01*
X0024891Y0038672D02*
X0023851Y0038672D01*
X0027091Y0040870D02*
X0027091Y0034177D01*
X0027091Y0040870D02*
X0027091Y0046382D01*
X0029071Y0049656D02*
X0074209Y0049656D01*
X0074209Y0050654D02*
X0015405Y0050654D01*
X0015405Y0049656D02*
X0025110Y0049656D01*
X0024017Y0048657D02*
X0015405Y0048657D01*
X0015405Y0047659D02*
X0023525Y0047659D01*
X0023308Y0046660D02*
X0020524Y0046660D01*
X0022397Y0045662D02*
X0023308Y0045662D01*
X0023395Y0044663D02*
X0023708Y0044663D01*
X0023930Y0043665D02*
X0024458Y0043665D01*
X0017121Y0046660D02*
X0015405Y0046660D01*
X0015405Y0051653D02*
X0074209Y0051653D01*
X0074209Y0052652D02*
X0015405Y0052652D01*
X0015303Y0053650D02*
X0074311Y0053650D01*
X0075310Y0054649D02*
X0014305Y0054649D01*
X0013261Y0057644D02*
X0003594Y0057644D01*
X0003594Y0056646D02*
X0086020Y0056646D01*
X0086020Y0057644D02*
X0075959Y0057644D01*
X0076428Y0058643D02*
X0086020Y0058643D01*
X0086020Y0059641D02*
X0076428Y0059641D01*
X0076428Y0060640D02*
X0086020Y0060640D01*
X0086020Y0061638D02*
X0076428Y0061638D01*
X0076428Y0062637D02*
X0086020Y0062637D01*
X0086020Y0063635D02*
X0076428Y0063635D01*
X0076428Y0064634D02*
X0086020Y0064634D01*
X0086020Y0065632D02*
X0076428Y0065632D01*
X0076428Y0066631D02*
X0086020Y0066631D01*
X0086020Y0067629D02*
X0076428Y0067629D01*
X0076428Y0068628D02*
X0086020Y0068628D01*
X0086020Y0069626D02*
X0076428Y0069626D01*
X0076428Y0070625D02*
X0086020Y0070625D01*
X0086020Y0071623D02*
X0076428Y0071623D01*
X0076428Y0072622D02*
X0086020Y0072622D01*
X0086020Y0073620D02*
X0076428Y0073620D01*
X0076428Y0074619D02*
X0086020Y0074619D01*
X0086020Y0075617D02*
X0076428Y0075617D01*
X0076428Y0076616D02*
X0086020Y0076616D01*
X0086020Y0077614D02*
X0076428Y0077614D01*
X0076428Y0078613D02*
X0086020Y0078613D01*
X0086020Y0079611D02*
X0076428Y0079611D01*
X0076428Y0080610D02*
X0086020Y0080610D01*
X0086020Y0081608D02*
X0076428Y0081608D01*
X0076428Y0082607D02*
X0086020Y0082607D01*
X0086020Y0083605D02*
X0076428Y0083605D01*
X0076428Y0084604D02*
X0086020Y0084604D01*
X0086020Y0085602D02*
X0076428Y0085602D01*
X0076428Y0086601D02*
X0086020Y0086601D01*
X0086020Y0087599D02*
X0076428Y0087599D01*
X0076428Y0088598D02*
X0086020Y0088598D01*
X0086020Y0089596D02*
X0076428Y0089596D01*
X0076428Y0090595D02*
X0086020Y0090595D01*
X0086020Y0091593D02*
X0076428Y0091593D01*
X0076428Y0092592D02*
X0086020Y0092592D01*
X0086020Y0093590D02*
X0076428Y0093590D01*
X0076428Y0094589D02*
X0086020Y0094589D01*
X0086020Y0095587D02*
X0076428Y0095587D01*
X0076428Y0096586D02*
X0086020Y0096586D01*
X0086020Y0097585D02*
X0076428Y0097585D01*
X0076428Y0098583D02*
X0086020Y0098583D01*
X0086020Y0099582D02*
X0076428Y0099582D01*
X0076428Y0100580D02*
X0086020Y0100580D01*
X0086020Y0101579D02*
X0076428Y0101579D01*
X0076428Y0102577D02*
X0086020Y0102577D01*
X0086020Y0103576D02*
X0076428Y0103576D01*
X0076428Y0104574D02*
X0086020Y0104574D01*
X0086020Y0105573D02*
X0076428Y0105573D01*
X0076428Y0106571D02*
X0086020Y0106571D01*
X0086020Y0107570D02*
X0076428Y0107570D01*
X0076428Y0108568D02*
X0086020Y0108568D01*
X0086020Y0109567D02*
X0076428Y0109567D01*
X0076428Y0110565D02*
X0086020Y0110565D01*
X0086020Y0111564D02*
X0076428Y0111564D01*
X0076428Y0112562D02*
X0086020Y0112562D01*
X0086020Y0113561D02*
X0076428Y0113561D01*
X0076428Y0114559D02*
X0086020Y0114559D01*
X0086020Y0115558D02*
X0076428Y0115558D01*
X0076428Y0116556D02*
X0086020Y0116556D01*
X0086020Y0117555D02*
X0076428Y0117555D01*
X0076428Y0118553D02*
X0086020Y0118553D01*
X0086020Y0119552D02*
X0076428Y0119552D01*
X0076428Y0120550D02*
X0086020Y0120550D01*
X0086020Y0055647D02*
X0003594Y0055647D01*
X0003594Y0058643D02*
X0012792Y0058643D01*
X0012792Y0059641D02*
X0003594Y0059641D01*
X0003594Y0060640D02*
X0012792Y0060640D01*
X0012792Y0061638D02*
X0003594Y0061638D01*
X0003594Y0062637D02*
X0012792Y0062637D01*
X0012792Y0063635D02*
X0003594Y0063635D01*
X0003594Y0064634D02*
X0012792Y0064634D01*
X0012792Y0065632D02*
X0003594Y0065632D01*
X0003594Y0066631D02*
X0012792Y0066631D01*
X0012792Y0067629D02*
X0003594Y0067629D01*
X0003594Y0068628D02*
X0012792Y0068628D01*
X0012792Y0069626D02*
X0003594Y0069626D01*
X0003594Y0070625D02*
X0012792Y0070625D01*
X0012792Y0071623D02*
X0003594Y0071623D01*
X0003594Y0072622D02*
X0012792Y0072622D01*
X0012792Y0073620D02*
X0003594Y0073620D01*
X0003594Y0074619D02*
X0012792Y0074619D01*
X0012792Y0075617D02*
X0003594Y0075617D01*
X0003594Y0076616D02*
X0012792Y0076616D01*
X0012792Y0077614D02*
X0003594Y0077614D01*
X0003594Y0078613D02*
X0012792Y0078613D01*
X0012792Y0079611D02*
X0003594Y0079611D01*
X0003594Y0080610D02*
X0012792Y0080610D01*
X0012792Y0081608D02*
X0003594Y0081608D01*
X0003594Y0082607D02*
X0012792Y0082607D01*
X0012792Y0083605D02*
X0003594Y0083605D01*
X0003594Y0084604D02*
X0012792Y0084604D01*
X0012792Y0085602D02*
X0003594Y0085602D01*
X0003594Y0086601D02*
X0012792Y0086601D01*
X0012792Y0087599D02*
X0003594Y0087599D01*
X0003594Y0088598D02*
X0012792Y0088598D01*
X0012792Y0089596D02*
X0003594Y0089596D01*
X0003594Y0090595D02*
X0012792Y0090595D01*
X0012792Y0091593D02*
X0003594Y0091593D01*
X0003594Y0092592D02*
X0012792Y0092592D01*
X0012792Y0093590D02*
X0003594Y0093590D01*
X0003594Y0094589D02*
X0012792Y0094589D01*
X0012792Y0095587D02*
X0003594Y0095587D01*
X0003594Y0096586D02*
X0012792Y0096586D01*
X0012792Y0097585D02*
X0003594Y0097585D01*
X0003594Y0098583D02*
X0012792Y0098583D01*
X0012792Y0099582D02*
X0003594Y0099582D01*
X0003594Y0100580D02*
X0012792Y0100580D01*
X0012792Y0101579D02*
X0003594Y0101579D01*
X0003594Y0102577D02*
X0012792Y0102577D01*
X0012792Y0103576D02*
X0003594Y0103576D01*
X0003594Y0104574D02*
X0012792Y0104574D01*
X0012792Y0105573D02*
X0003594Y0105573D01*
X0003594Y0106571D02*
X0012792Y0106571D01*
X0012792Y0107570D02*
X0003594Y0107570D01*
X0003594Y0108568D02*
X0012792Y0108568D01*
X0012792Y0109567D02*
X0003594Y0109567D01*
X0003594Y0110565D02*
X0012792Y0110565D01*
X0012792Y0111564D02*
X0003594Y0111564D01*
X0003594Y0112562D02*
X0012792Y0112562D01*
X0012792Y0113561D02*
X0003594Y0113561D01*
X0003594Y0114559D02*
X0012792Y0114559D01*
X0012792Y0115558D02*
X0003594Y0115558D01*
X0003594Y0116556D02*
X0012792Y0116556D01*
X0012792Y0117555D02*
X0003594Y0117555D01*
X0003594Y0118553D02*
X0012792Y0118553D01*
X0012792Y0119552D02*
X0003594Y0119552D01*
X0003594Y0120550D02*
X0012792Y0120550D01*
X0050454Y0047659D02*
X0058970Y0047659D01*
X0056799Y0046660D02*
X0051283Y0046660D01*
X0051697Y0045662D02*
X0055800Y0045662D01*
X0055142Y0044663D02*
X0051739Y0044663D01*
X0052210Y0043665D02*
X0054728Y0043665D01*
X0052287Y0040476D02*
X0047957Y0044807D01*
X0037095Y0023695D02*
X0029832Y0023695D01*
X0028824Y0022696D02*
X0037095Y0022696D01*
X0037095Y0021698D02*
X0015405Y0021698D01*
X0015405Y0020699D02*
X0037095Y0020699D01*
X0035351Y0019701D02*
X0015405Y0019701D01*
X0015405Y0018702D02*
X0034352Y0018702D01*
X0033804Y0017704D02*
X0015405Y0017704D01*
X0015405Y0016705D02*
X0033391Y0016705D01*
X0033265Y0015707D02*
X0015405Y0015707D01*
X0015405Y0014708D02*
X0033265Y0014708D01*
X0033450Y0013710D02*
X0015405Y0013710D01*
X0015405Y0012711D02*
X0033864Y0012711D01*
X0034497Y0011713D02*
X0015405Y0011713D01*
X0015405Y0010714D02*
X0035495Y0010714D01*
X0037604Y0009716D02*
X0015405Y0009716D01*
X0015405Y0008717D02*
X0074209Y0008717D01*
X0074209Y0007719D02*
X0015405Y0007719D01*
X0015405Y0006720D02*
X0074209Y0006720D01*
X0074209Y0005721D02*
X0015405Y0005721D01*
X0015405Y0004723D02*
X0074209Y0004723D01*
X0074209Y0003724D02*
X0015405Y0003724D01*
X0040199Y0009716D02*
X0048465Y0009716D01*
X0046912Y0010714D02*
X0042308Y0010714D01*
X0043307Y0011713D02*
X0045926Y0011713D01*
X0045512Y0012711D02*
X0043939Y0012711D01*
X0044353Y0013710D02*
X0045098Y0013710D01*
X0045076Y0014708D02*
X0044539Y0014708D01*
X0044539Y0015707D02*
X0045076Y0015707D01*
X0045365Y0016705D02*
X0044413Y0016705D01*
X0043999Y0017704D02*
X0045778Y0017704D01*
X0046557Y0018702D02*
X0043451Y0018702D01*
M02*
