G04 #@! TF.FileFunction,Copper,L16,Bot,Signal*
%FSLAX46Y46*%
G04 Gerber Fmt 4.6, Leading zero omitted, Abs format (unit mm)*
G04 Created by KiCad (PCBNEW 4.0.4-stable) date 07/01/17 17:59:33*
%MOMM*%
%LPD*%
G01*
G04 APERTURE LIST*
%ADD10C,0.100000*%
%ADD11C,0.635000*%
%ADD12C,0.355600*%
%ADD13C,0.254000*%
G04 APERTURE END LIST*
D10*
D11*
X15875000Y-24638000D03*
X4318000Y-24257000D03*
X7620000Y-19685000D03*
X13081000Y-21971000D03*
X11811000Y-24638000D03*
X10541000Y-22098000D03*
X5207000Y-22733000D03*
X9398000Y-20701000D03*
X17399000Y-24003000D03*
X15621000Y-19304000D03*
X8763000Y-18923000D03*
X4318000Y-19812000D03*
X6477000Y-18542000D03*
D12*
X15875000Y-24638000D02*
X15875000Y-24892000D01*
X15875000Y-24892000D02*
X14097000Y-26670000D01*
X14097000Y-26670000D02*
X6731000Y-26670000D01*
X6731000Y-26670000D02*
X4318000Y-24257000D01*
D13*
X13081000Y-23368000D02*
X13081000Y-21971000D01*
X11811000Y-24638000D02*
X13081000Y-23368000D01*
X10541000Y-22098000D02*
X5842000Y-22098000D01*
X5842000Y-22098000D02*
X5207000Y-22733000D01*
D12*
X9779000Y-20320000D02*
X10795000Y-20320000D01*
X9398000Y-20701000D02*
X9779000Y-20320000D01*
X17399000Y-24003000D02*
X13716000Y-20320000D01*
X13716000Y-20320000D02*
X9906000Y-20320000D01*
D13*
X15240000Y-18923000D02*
X14224000Y-18923000D01*
X15621000Y-19304000D02*
X15240000Y-18923000D01*
X14224000Y-18923000D02*
X8763000Y-18923000D01*
X8763000Y-18923000D02*
X8763000Y-18923000D01*
X5207000Y-18923000D02*
X6096000Y-18923000D01*
X4318000Y-19812000D02*
X5207000Y-18923000D01*
X6096000Y-18923000D02*
X6477000Y-18542000D01*
G36*
X2929500Y-16444800D02*
X2934152Y-16492249D01*
X2938477Y-16539765D01*
X2938979Y-16541469D01*
X2939152Y-16543238D01*
X2952930Y-16588874D01*
X2966403Y-16634651D01*
X2967227Y-16636228D01*
X2967740Y-16637926D01*
X2990108Y-16679994D01*
X3012228Y-16722305D01*
X3013342Y-16723691D01*
X3014176Y-16725259D01*
X3044311Y-16762208D01*
X3074205Y-16799389D01*
X3075566Y-16800531D01*
X3076690Y-16801909D01*
X3113427Y-16832300D01*
X3149975Y-16862968D01*
X3151534Y-16863825D01*
X3152901Y-16864956D01*
X3194796Y-16887608D01*
X3236650Y-16910618D01*
X3238346Y-16911156D01*
X3239907Y-16912000D01*
X3285453Y-16926099D01*
X3330930Y-16940525D01*
X3332695Y-16940723D01*
X3334394Y-16941249D01*
X3381849Y-16946237D01*
X3429224Y-16951551D01*
X3432635Y-16951575D01*
X3432762Y-16951588D01*
X3432890Y-16951576D01*
X3436300Y-16951600D01*
X18536300Y-16951600D01*
X18583749Y-16946948D01*
X18631265Y-16942623D01*
X18632969Y-16942121D01*
X18634738Y-16941948D01*
X18680374Y-16928170D01*
X18726151Y-16914697D01*
X18727728Y-16913873D01*
X18729426Y-16913360D01*
X18771494Y-16890992D01*
X18813805Y-16868872D01*
X18815191Y-16867758D01*
X18816759Y-16866924D01*
X18853708Y-16836789D01*
X18890889Y-16806895D01*
X18892031Y-16805534D01*
X18893409Y-16804410D01*
X18923800Y-16767673D01*
X18954468Y-16731125D01*
X18955325Y-16729566D01*
X18956456Y-16728199D01*
X18979108Y-16686304D01*
X19002118Y-16644450D01*
X19002656Y-16642754D01*
X19003500Y-16641193D01*
X19017599Y-16595647D01*
X19032025Y-16550170D01*
X19032223Y-16548405D01*
X19032749Y-16546706D01*
X19037737Y-16499251D01*
X19043051Y-16451876D01*
X19043075Y-16448465D01*
X19043088Y-16448338D01*
X19043076Y-16448210D01*
X19043100Y-16444800D01*
X19043100Y-551600D01*
X21529500Y-551600D01*
X21529500Y-17538000D01*
X19036300Y-17538000D01*
X18988851Y-17542652D01*
X18941335Y-17546977D01*
X18939631Y-17547479D01*
X18937862Y-17547652D01*
X18892226Y-17561430D01*
X18846449Y-17574903D01*
X18844872Y-17575727D01*
X18843174Y-17576240D01*
X18801106Y-17598608D01*
X18758795Y-17620728D01*
X18757409Y-17621842D01*
X18755841Y-17622676D01*
X18718892Y-17652811D01*
X18681711Y-17682705D01*
X18680569Y-17684066D01*
X18679191Y-17685190D01*
X18648800Y-17721927D01*
X18618132Y-17758475D01*
X18617275Y-17760034D01*
X18616144Y-17761401D01*
X18593492Y-17803296D01*
X18570482Y-17845150D01*
X18569944Y-17846846D01*
X18569100Y-17848407D01*
X18555001Y-17893953D01*
X18540575Y-17939430D01*
X18540377Y-17941195D01*
X18539851Y-17942894D01*
X18534863Y-17990349D01*
X18529549Y-18037724D01*
X18529525Y-18041135D01*
X18529512Y-18041262D01*
X18529524Y-18041390D01*
X18529500Y-18044800D01*
X18529500Y-30538000D01*
X3543100Y-30538000D01*
X3543100Y-24701003D01*
X11060715Y-24701003D01*
X11087241Y-24845535D01*
X11141335Y-24982161D01*
X11220937Y-25105678D01*
X11323014Y-25211382D01*
X11443678Y-25295246D01*
X11578333Y-25354075D01*
X11721851Y-25385630D01*
X11868764Y-25388707D01*
X12013477Y-25363190D01*
X12150477Y-25310051D01*
X12274548Y-25231314D01*
X12380961Y-25129977D01*
X12465665Y-25009902D01*
X12525433Y-24875660D01*
X12557989Y-24732367D01*
X12558713Y-24680549D01*
X13476131Y-23763131D01*
X13508884Y-23723257D01*
X13542073Y-23683704D01*
X13543489Y-23681129D01*
X13545354Y-23678858D01*
X13569721Y-23633412D01*
X13594613Y-23588135D01*
X13595503Y-23585328D01*
X13596889Y-23582744D01*
X13611956Y-23533462D01*
X13627589Y-23484181D01*
X13627917Y-23481258D01*
X13628775Y-23478451D01*
X13633988Y-23427137D01*
X13639746Y-23375802D01*
X13639786Y-23370061D01*
X13639797Y-23369950D01*
X13639787Y-23369847D01*
X13639800Y-23368000D01*
X13639800Y-22473606D01*
X13650961Y-22462977D01*
X13735665Y-22342902D01*
X13795433Y-22208660D01*
X13827989Y-22065367D01*
X13830333Y-21897527D01*
X13801791Y-21753380D01*
X13745794Y-21617523D01*
X13664476Y-21495129D01*
X13560933Y-21390861D01*
X13439110Y-21308690D01*
X13303646Y-21251746D01*
X13159702Y-21222199D01*
X13012760Y-21221173D01*
X12868418Y-21248708D01*
X12732172Y-21303754D01*
X12609214Y-21384216D01*
X12504225Y-21487028D01*
X12421206Y-21608275D01*
X12363318Y-21743338D01*
X12332766Y-21887072D01*
X12330715Y-22034003D01*
X12357241Y-22178535D01*
X12411335Y-22315161D01*
X12490937Y-22438678D01*
X12522200Y-22471052D01*
X12522200Y-23136538D01*
X11770372Y-23888366D01*
X11742760Y-23888173D01*
X11598418Y-23915708D01*
X11462172Y-23970754D01*
X11339214Y-24051216D01*
X11234225Y-24154028D01*
X11151206Y-24275275D01*
X11093318Y-24410338D01*
X11062766Y-24554072D01*
X11060715Y-24701003D01*
X3543100Y-24701003D01*
X3543100Y-22796003D01*
X4456715Y-22796003D01*
X4483241Y-22940535D01*
X4537335Y-23077161D01*
X4616937Y-23200678D01*
X4719014Y-23306382D01*
X4839678Y-23390246D01*
X4974333Y-23449075D01*
X5117851Y-23480630D01*
X5264764Y-23483707D01*
X5409477Y-23458190D01*
X5546477Y-23405051D01*
X5670548Y-23326314D01*
X5776961Y-23224977D01*
X5861665Y-23104902D01*
X5921433Y-22970660D01*
X5953989Y-22827367D01*
X5954713Y-22775550D01*
X6073463Y-22656800D01*
X10038932Y-22656800D01*
X10053014Y-22671382D01*
X10173678Y-22755246D01*
X10308333Y-22814075D01*
X10451851Y-22845630D01*
X10598764Y-22848707D01*
X10743477Y-22823190D01*
X10880477Y-22770051D01*
X11004548Y-22691314D01*
X11110961Y-22589977D01*
X11195665Y-22469902D01*
X11255433Y-22335660D01*
X11287989Y-22192367D01*
X11290333Y-22024527D01*
X11261791Y-21880380D01*
X11205794Y-21744523D01*
X11124476Y-21622129D01*
X11020933Y-21517861D01*
X10899110Y-21435690D01*
X10763646Y-21378746D01*
X10619702Y-21349199D01*
X10472760Y-21348173D01*
X10328418Y-21375708D01*
X10192172Y-21430754D01*
X10069214Y-21511216D01*
X10040637Y-21539200D01*
X5842000Y-21539200D01*
X5790632Y-21544237D01*
X5739209Y-21548735D01*
X5736385Y-21549555D01*
X5733462Y-21549842D01*
X5684072Y-21564754D01*
X5634480Y-21579162D01*
X5631870Y-21580515D01*
X5629058Y-21581364D01*
X5583503Y-21605586D01*
X5537656Y-21629351D01*
X5535359Y-21631185D01*
X5532765Y-21632564D01*
X5492780Y-21665175D01*
X5452424Y-21697390D01*
X5448333Y-21701424D01*
X5448250Y-21701492D01*
X5448186Y-21701569D01*
X5446869Y-21702868D01*
X5166372Y-21983366D01*
X5138760Y-21983173D01*
X4994418Y-22010708D01*
X4858172Y-22065754D01*
X4735214Y-22146216D01*
X4630225Y-22249028D01*
X4547206Y-22370275D01*
X4489318Y-22505338D01*
X4458766Y-22649072D01*
X4456715Y-22796003D01*
X3543100Y-22796003D01*
X3543100Y-20764003D01*
X8647715Y-20764003D01*
X8674241Y-20908535D01*
X8728335Y-21045161D01*
X8807937Y-21168678D01*
X8910014Y-21274382D01*
X9030678Y-21358246D01*
X9165333Y-21417075D01*
X9308851Y-21448630D01*
X9455764Y-21451707D01*
X9600477Y-21426190D01*
X9737477Y-21373051D01*
X9861548Y-21294314D01*
X9967961Y-21192977D01*
X10052665Y-21072902D01*
X10112433Y-20938660D01*
X10114491Y-20929600D01*
X13463496Y-20929600D01*
X16659688Y-24125793D01*
X16675241Y-24210535D01*
X16729335Y-24347161D01*
X16808937Y-24470678D01*
X16911014Y-24576382D01*
X17031678Y-24660246D01*
X17166333Y-24719075D01*
X17309851Y-24750630D01*
X17456764Y-24753707D01*
X17601477Y-24728190D01*
X17738477Y-24675051D01*
X17862548Y-24596314D01*
X17968961Y-24494977D01*
X18053665Y-24374902D01*
X18113433Y-24240660D01*
X18145989Y-24097367D01*
X18148333Y-23929527D01*
X18119791Y-23785380D01*
X18063794Y-23649523D01*
X17982476Y-23527129D01*
X17878933Y-23422861D01*
X17757110Y-23340690D01*
X17621646Y-23283746D01*
X17521241Y-23263136D01*
X14147052Y-19888948D01*
X14103569Y-19853230D01*
X14060404Y-19817011D01*
X14057595Y-19815467D01*
X14055118Y-19813432D01*
X14005499Y-19786826D01*
X13956147Y-19759695D01*
X13953090Y-19758725D01*
X13950266Y-19757211D01*
X13896447Y-19740757D01*
X13842743Y-19723721D01*
X13839555Y-19723363D01*
X13836492Y-19722427D01*
X13780527Y-19716742D01*
X13724511Y-19710459D01*
X13718242Y-19710416D01*
X13718128Y-19710404D01*
X13718022Y-19710414D01*
X13716000Y-19710400D01*
X9779000Y-19710400D01*
X9722971Y-19715894D01*
X9666863Y-19720803D01*
X9663785Y-19721697D01*
X9660595Y-19722010D01*
X9606700Y-19738282D01*
X9552614Y-19753995D01*
X9549767Y-19755471D01*
X9546699Y-19756397D01*
X9496965Y-19782841D01*
X9446988Y-19808747D01*
X9444485Y-19810745D01*
X9441653Y-19812251D01*
X9398052Y-19847811D01*
X9354007Y-19882971D01*
X9349541Y-19887376D01*
X9349455Y-19887446D01*
X9349389Y-19887526D01*
X9347947Y-19888948D01*
X9275341Y-19961554D01*
X9185418Y-19978708D01*
X9049172Y-20033754D01*
X8926214Y-20114216D01*
X8821225Y-20217028D01*
X8738206Y-20338275D01*
X8680318Y-20473338D01*
X8649766Y-20617072D01*
X8647715Y-20764003D01*
X3543100Y-20764003D01*
X3543100Y-19875003D01*
X3567715Y-19875003D01*
X3594241Y-20019535D01*
X3648335Y-20156161D01*
X3727937Y-20279678D01*
X3830014Y-20385382D01*
X3950678Y-20469246D01*
X4085333Y-20528075D01*
X4228851Y-20559630D01*
X4375764Y-20562707D01*
X4520477Y-20537190D01*
X4657477Y-20484051D01*
X4781548Y-20405314D01*
X4887961Y-20303977D01*
X4972665Y-20183902D01*
X5032433Y-20049660D01*
X5064989Y-19906367D01*
X5065713Y-19854549D01*
X5438462Y-19481800D01*
X6096000Y-19481800D01*
X6147414Y-19476759D01*
X6198791Y-19472264D01*
X6201610Y-19471445D01*
X6204538Y-19471158D01*
X6253970Y-19456233D01*
X6303520Y-19441838D01*
X6306130Y-19440485D01*
X6308942Y-19439636D01*
X6354497Y-19415414D01*
X6400344Y-19391649D01*
X6402641Y-19389815D01*
X6405235Y-19388436D01*
X6445220Y-19355825D01*
X6485576Y-19323610D01*
X6489663Y-19319579D01*
X6489750Y-19319508D01*
X6489817Y-19319427D01*
X6491131Y-19318131D01*
X6516929Y-19292333D01*
X6534764Y-19292707D01*
X6679477Y-19267190D01*
X6816477Y-19214051D01*
X6940548Y-19135314D01*
X7046961Y-19033977D01*
X7080803Y-18986003D01*
X8012715Y-18986003D01*
X8039241Y-19130535D01*
X8093335Y-19267161D01*
X8172937Y-19390678D01*
X8275014Y-19496382D01*
X8395678Y-19580246D01*
X8530333Y-19639075D01*
X8673851Y-19670630D01*
X8820764Y-19673707D01*
X8965477Y-19648190D01*
X9102477Y-19595051D01*
X9226548Y-19516314D01*
X9262791Y-19481800D01*
X14891784Y-19481800D01*
X14897241Y-19511535D01*
X14951335Y-19648161D01*
X15030937Y-19771678D01*
X15133014Y-19877382D01*
X15253678Y-19961246D01*
X15388333Y-20020075D01*
X15531851Y-20051630D01*
X15678764Y-20054707D01*
X15823477Y-20029190D01*
X15960477Y-19976051D01*
X16084548Y-19897314D01*
X16190961Y-19795977D01*
X16275665Y-19675902D01*
X16335433Y-19541660D01*
X16367989Y-19398367D01*
X16370333Y-19230527D01*
X16341791Y-19086380D01*
X16285794Y-18950523D01*
X16204476Y-18828129D01*
X16100933Y-18723861D01*
X15979110Y-18641690D01*
X15843646Y-18584746D01*
X15699702Y-18555199D01*
X15662199Y-18554937D01*
X15635131Y-18527869D01*
X15595257Y-18495116D01*
X15555704Y-18461927D01*
X15553129Y-18460511D01*
X15550858Y-18458646D01*
X15505378Y-18434260D01*
X15460135Y-18409387D01*
X15457333Y-18408498D01*
X15454744Y-18407110D01*
X15405416Y-18392029D01*
X15356181Y-18376411D01*
X15353258Y-18376083D01*
X15350451Y-18375225D01*
X15299137Y-18370012D01*
X15247802Y-18364254D01*
X15242061Y-18364214D01*
X15241950Y-18364203D01*
X15241847Y-18364213D01*
X15240000Y-18364200D01*
X9264124Y-18364200D01*
X9242933Y-18342861D01*
X9121110Y-18260690D01*
X8985646Y-18203746D01*
X8841702Y-18174199D01*
X8694760Y-18173173D01*
X8550418Y-18200708D01*
X8414172Y-18255754D01*
X8291214Y-18336216D01*
X8186225Y-18439028D01*
X8103206Y-18560275D01*
X8045318Y-18695338D01*
X8014766Y-18839072D01*
X8012715Y-18986003D01*
X7080803Y-18986003D01*
X7131665Y-18913902D01*
X7191433Y-18779660D01*
X7223989Y-18636367D01*
X7226333Y-18468527D01*
X7197791Y-18324380D01*
X7141794Y-18188523D01*
X7060476Y-18066129D01*
X6956933Y-17961861D01*
X6835110Y-17879690D01*
X6699646Y-17822746D01*
X6555702Y-17793199D01*
X6408760Y-17792173D01*
X6264418Y-17819708D01*
X6128172Y-17874754D01*
X6005214Y-17955216D01*
X5900225Y-18058028D01*
X5817206Y-18179275D01*
X5759318Y-18314338D01*
X5748719Y-18364200D01*
X5207000Y-18364200D01*
X5155586Y-18369241D01*
X5104209Y-18373736D01*
X5101390Y-18374555D01*
X5098462Y-18374842D01*
X5049030Y-18389767D01*
X4999480Y-18404162D01*
X4996870Y-18405515D01*
X4994058Y-18406364D01*
X4948503Y-18430586D01*
X4902656Y-18454351D01*
X4900359Y-18456185D01*
X4897765Y-18457564D01*
X4857780Y-18490175D01*
X4817424Y-18522390D01*
X4813337Y-18526421D01*
X4813250Y-18526492D01*
X4813183Y-18526573D01*
X4811869Y-18527869D01*
X4277372Y-19062366D01*
X4249760Y-19062173D01*
X4105418Y-19089708D01*
X3969172Y-19144754D01*
X3846214Y-19225216D01*
X3741225Y-19328028D01*
X3658206Y-19449275D01*
X3600318Y-19584338D01*
X3569766Y-19728072D01*
X3567715Y-19875003D01*
X3543100Y-19875003D01*
X3543100Y-18044800D01*
X3538448Y-17997351D01*
X3534123Y-17949835D01*
X3533621Y-17948131D01*
X3533448Y-17946362D01*
X3519670Y-17900726D01*
X3506197Y-17854949D01*
X3505373Y-17853372D01*
X3504860Y-17851674D01*
X3482492Y-17809606D01*
X3460372Y-17767295D01*
X3459258Y-17765909D01*
X3458424Y-17764341D01*
X3428289Y-17727392D01*
X3398395Y-17690211D01*
X3397034Y-17689069D01*
X3395910Y-17687691D01*
X3359173Y-17657300D01*
X3322625Y-17626632D01*
X3321066Y-17625775D01*
X3319699Y-17624644D01*
X3277804Y-17601992D01*
X3235950Y-17578982D01*
X3234254Y-17578444D01*
X3232693Y-17577600D01*
X3187147Y-17563501D01*
X3141670Y-17549075D01*
X3139905Y-17548877D01*
X3138206Y-17548351D01*
X3090751Y-17543363D01*
X3043376Y-17538049D01*
X3039965Y-17538025D01*
X3039838Y-17538012D01*
X3039710Y-17538024D01*
X3036300Y-17538000D01*
X543100Y-17538000D01*
X543100Y-551600D01*
X2929500Y-551600D01*
X2929500Y-16444800D01*
X2929500Y-16444800D01*
G37*
X2929500Y-16444800D02*
X2934152Y-16492249D01*
X2938477Y-16539765D01*
X2938979Y-16541469D01*
X2939152Y-16543238D01*
X2952930Y-16588874D01*
X2966403Y-16634651D01*
X2967227Y-16636228D01*
X2967740Y-16637926D01*
X2990108Y-16679994D01*
X3012228Y-16722305D01*
X3013342Y-16723691D01*
X3014176Y-16725259D01*
X3044311Y-16762208D01*
X3074205Y-16799389D01*
X3075566Y-16800531D01*
X3076690Y-16801909D01*
X3113427Y-16832300D01*
X3149975Y-16862968D01*
X3151534Y-16863825D01*
X3152901Y-16864956D01*
X3194796Y-16887608D01*
X3236650Y-16910618D01*
X3238346Y-16911156D01*
X3239907Y-16912000D01*
X3285453Y-16926099D01*
X3330930Y-16940525D01*
X3332695Y-16940723D01*
X3334394Y-16941249D01*
X3381849Y-16946237D01*
X3429224Y-16951551D01*
X3432635Y-16951575D01*
X3432762Y-16951588D01*
X3432890Y-16951576D01*
X3436300Y-16951600D01*
X18536300Y-16951600D01*
X18583749Y-16946948D01*
X18631265Y-16942623D01*
X18632969Y-16942121D01*
X18634738Y-16941948D01*
X18680374Y-16928170D01*
X18726151Y-16914697D01*
X18727728Y-16913873D01*
X18729426Y-16913360D01*
X18771494Y-16890992D01*
X18813805Y-16868872D01*
X18815191Y-16867758D01*
X18816759Y-16866924D01*
X18853708Y-16836789D01*
X18890889Y-16806895D01*
X18892031Y-16805534D01*
X18893409Y-16804410D01*
X18923800Y-16767673D01*
X18954468Y-16731125D01*
X18955325Y-16729566D01*
X18956456Y-16728199D01*
X18979108Y-16686304D01*
X19002118Y-16644450D01*
X19002656Y-16642754D01*
X19003500Y-16641193D01*
X19017599Y-16595647D01*
X19032025Y-16550170D01*
X19032223Y-16548405D01*
X19032749Y-16546706D01*
X19037737Y-16499251D01*
X19043051Y-16451876D01*
X19043075Y-16448465D01*
X19043088Y-16448338D01*
X19043076Y-16448210D01*
X19043100Y-16444800D01*
X19043100Y-551600D01*
X21529500Y-551600D01*
X21529500Y-17538000D01*
X19036300Y-17538000D01*
X18988851Y-17542652D01*
X18941335Y-17546977D01*
X18939631Y-17547479D01*
X18937862Y-17547652D01*
X18892226Y-17561430D01*
X18846449Y-17574903D01*
X18844872Y-17575727D01*
X18843174Y-17576240D01*
X18801106Y-17598608D01*
X18758795Y-17620728D01*
X18757409Y-17621842D01*
X18755841Y-17622676D01*
X18718892Y-17652811D01*
X18681711Y-17682705D01*
X18680569Y-17684066D01*
X18679191Y-17685190D01*
X18648800Y-17721927D01*
X18618132Y-17758475D01*
X18617275Y-17760034D01*
X18616144Y-17761401D01*
X18593492Y-17803296D01*
X18570482Y-17845150D01*
X18569944Y-17846846D01*
X18569100Y-17848407D01*
X18555001Y-17893953D01*
X18540575Y-17939430D01*
X18540377Y-17941195D01*
X18539851Y-17942894D01*
X18534863Y-17990349D01*
X18529549Y-18037724D01*
X18529525Y-18041135D01*
X18529512Y-18041262D01*
X18529524Y-18041390D01*
X18529500Y-18044800D01*
X18529500Y-30538000D01*
X3543100Y-30538000D01*
X3543100Y-24701003D01*
X11060715Y-24701003D01*
X11087241Y-24845535D01*
X11141335Y-24982161D01*
X11220937Y-25105678D01*
X11323014Y-25211382D01*
X11443678Y-25295246D01*
X11578333Y-25354075D01*
X11721851Y-25385630D01*
X11868764Y-25388707D01*
X12013477Y-25363190D01*
X12150477Y-25310051D01*
X12274548Y-25231314D01*
X12380961Y-25129977D01*
X12465665Y-25009902D01*
X12525433Y-24875660D01*
X12557989Y-24732367D01*
X12558713Y-24680549D01*
X13476131Y-23763131D01*
X13508884Y-23723257D01*
X13542073Y-23683704D01*
X13543489Y-23681129D01*
X13545354Y-23678858D01*
X13569721Y-23633412D01*
X13594613Y-23588135D01*
X13595503Y-23585328D01*
X13596889Y-23582744D01*
X13611956Y-23533462D01*
X13627589Y-23484181D01*
X13627917Y-23481258D01*
X13628775Y-23478451D01*
X13633988Y-23427137D01*
X13639746Y-23375802D01*
X13639786Y-23370061D01*
X13639797Y-23369950D01*
X13639787Y-23369847D01*
X13639800Y-23368000D01*
X13639800Y-22473606D01*
X13650961Y-22462977D01*
X13735665Y-22342902D01*
X13795433Y-22208660D01*
X13827989Y-22065367D01*
X13830333Y-21897527D01*
X13801791Y-21753380D01*
X13745794Y-21617523D01*
X13664476Y-21495129D01*
X13560933Y-21390861D01*
X13439110Y-21308690D01*
X13303646Y-21251746D01*
X13159702Y-21222199D01*
X13012760Y-21221173D01*
X12868418Y-21248708D01*
X12732172Y-21303754D01*
X12609214Y-21384216D01*
X12504225Y-21487028D01*
X12421206Y-21608275D01*
X12363318Y-21743338D01*
X12332766Y-21887072D01*
X12330715Y-22034003D01*
X12357241Y-22178535D01*
X12411335Y-22315161D01*
X12490937Y-22438678D01*
X12522200Y-22471052D01*
X12522200Y-23136538D01*
X11770372Y-23888366D01*
X11742760Y-23888173D01*
X11598418Y-23915708D01*
X11462172Y-23970754D01*
X11339214Y-24051216D01*
X11234225Y-24154028D01*
X11151206Y-24275275D01*
X11093318Y-24410338D01*
X11062766Y-24554072D01*
X11060715Y-24701003D01*
X3543100Y-24701003D01*
X3543100Y-22796003D01*
X4456715Y-22796003D01*
X4483241Y-22940535D01*
X4537335Y-23077161D01*
X4616937Y-23200678D01*
X4719014Y-23306382D01*
X4839678Y-23390246D01*
X4974333Y-23449075D01*
X5117851Y-23480630D01*
X5264764Y-23483707D01*
X5409477Y-23458190D01*
X5546477Y-23405051D01*
X5670548Y-23326314D01*
X5776961Y-23224977D01*
X5861665Y-23104902D01*
X5921433Y-22970660D01*
X5953989Y-22827367D01*
X5954713Y-22775550D01*
X6073463Y-22656800D01*
X10038932Y-22656800D01*
X10053014Y-22671382D01*
X10173678Y-22755246D01*
X10308333Y-22814075D01*
X10451851Y-22845630D01*
X10598764Y-22848707D01*
X10743477Y-22823190D01*
X10880477Y-22770051D01*
X11004548Y-22691314D01*
X11110961Y-22589977D01*
X11195665Y-22469902D01*
X11255433Y-22335660D01*
X11287989Y-22192367D01*
X11290333Y-22024527D01*
X11261791Y-21880380D01*
X11205794Y-21744523D01*
X11124476Y-21622129D01*
X11020933Y-21517861D01*
X10899110Y-21435690D01*
X10763646Y-21378746D01*
X10619702Y-21349199D01*
X10472760Y-21348173D01*
X10328418Y-21375708D01*
X10192172Y-21430754D01*
X10069214Y-21511216D01*
X10040637Y-21539200D01*
X5842000Y-21539200D01*
X5790632Y-21544237D01*
X5739209Y-21548735D01*
X5736385Y-21549555D01*
X5733462Y-21549842D01*
X5684072Y-21564754D01*
X5634480Y-21579162D01*
X5631870Y-21580515D01*
X5629058Y-21581364D01*
X5583503Y-21605586D01*
X5537656Y-21629351D01*
X5535359Y-21631185D01*
X5532765Y-21632564D01*
X5492780Y-21665175D01*
X5452424Y-21697390D01*
X5448333Y-21701424D01*
X5448250Y-21701492D01*
X5448186Y-21701569D01*
X5446869Y-21702868D01*
X5166372Y-21983366D01*
X5138760Y-21983173D01*
X4994418Y-22010708D01*
X4858172Y-22065754D01*
X4735214Y-22146216D01*
X4630225Y-22249028D01*
X4547206Y-22370275D01*
X4489318Y-22505338D01*
X4458766Y-22649072D01*
X4456715Y-22796003D01*
X3543100Y-22796003D01*
X3543100Y-20764003D01*
X8647715Y-20764003D01*
X8674241Y-20908535D01*
X8728335Y-21045161D01*
X8807937Y-21168678D01*
X8910014Y-21274382D01*
X9030678Y-21358246D01*
X9165333Y-21417075D01*
X9308851Y-21448630D01*
X9455764Y-21451707D01*
X9600477Y-21426190D01*
X9737477Y-21373051D01*
X9861548Y-21294314D01*
X9967961Y-21192977D01*
X10052665Y-21072902D01*
X10112433Y-20938660D01*
X10114491Y-20929600D01*
X13463496Y-20929600D01*
X16659688Y-24125793D01*
X16675241Y-24210535D01*
X16729335Y-24347161D01*
X16808937Y-24470678D01*
X16911014Y-24576382D01*
X17031678Y-24660246D01*
X17166333Y-24719075D01*
X17309851Y-24750630D01*
X17456764Y-24753707D01*
X17601477Y-24728190D01*
X17738477Y-24675051D01*
X17862548Y-24596314D01*
X17968961Y-24494977D01*
X18053665Y-24374902D01*
X18113433Y-24240660D01*
X18145989Y-24097367D01*
X18148333Y-23929527D01*
X18119791Y-23785380D01*
X18063794Y-23649523D01*
X17982476Y-23527129D01*
X17878933Y-23422861D01*
X17757110Y-23340690D01*
X17621646Y-23283746D01*
X17521241Y-23263136D01*
X14147052Y-19888948D01*
X14103569Y-19853230D01*
X14060404Y-19817011D01*
X14057595Y-19815467D01*
X14055118Y-19813432D01*
X14005499Y-19786826D01*
X13956147Y-19759695D01*
X13953090Y-19758725D01*
X13950266Y-19757211D01*
X13896447Y-19740757D01*
X13842743Y-19723721D01*
X13839555Y-19723363D01*
X13836492Y-19722427D01*
X13780527Y-19716742D01*
X13724511Y-19710459D01*
X13718242Y-19710416D01*
X13718128Y-19710404D01*
X13718022Y-19710414D01*
X13716000Y-19710400D01*
X9779000Y-19710400D01*
X9722971Y-19715894D01*
X9666863Y-19720803D01*
X9663785Y-19721697D01*
X9660595Y-19722010D01*
X9606700Y-19738282D01*
X9552614Y-19753995D01*
X9549767Y-19755471D01*
X9546699Y-19756397D01*
X9496965Y-19782841D01*
X9446988Y-19808747D01*
X9444485Y-19810745D01*
X9441653Y-19812251D01*
X9398052Y-19847811D01*
X9354007Y-19882971D01*
X9349541Y-19887376D01*
X9349455Y-19887446D01*
X9349389Y-19887526D01*
X9347947Y-19888948D01*
X9275341Y-19961554D01*
X9185418Y-19978708D01*
X9049172Y-20033754D01*
X8926214Y-20114216D01*
X8821225Y-20217028D01*
X8738206Y-20338275D01*
X8680318Y-20473338D01*
X8649766Y-20617072D01*
X8647715Y-20764003D01*
X3543100Y-20764003D01*
X3543100Y-19875003D01*
X3567715Y-19875003D01*
X3594241Y-20019535D01*
X3648335Y-20156161D01*
X3727937Y-20279678D01*
X3830014Y-20385382D01*
X3950678Y-20469246D01*
X4085333Y-20528075D01*
X4228851Y-20559630D01*
X4375764Y-20562707D01*
X4520477Y-20537190D01*
X4657477Y-20484051D01*
X4781548Y-20405314D01*
X4887961Y-20303977D01*
X4972665Y-20183902D01*
X5032433Y-20049660D01*
X5064989Y-19906367D01*
X5065713Y-19854549D01*
X5438462Y-19481800D01*
X6096000Y-19481800D01*
X6147414Y-19476759D01*
X6198791Y-19472264D01*
X6201610Y-19471445D01*
X6204538Y-19471158D01*
X6253970Y-19456233D01*
X6303520Y-19441838D01*
X6306130Y-19440485D01*
X6308942Y-19439636D01*
X6354497Y-19415414D01*
X6400344Y-19391649D01*
X6402641Y-19389815D01*
X6405235Y-19388436D01*
X6445220Y-19355825D01*
X6485576Y-19323610D01*
X6489663Y-19319579D01*
X6489750Y-19319508D01*
X6489817Y-19319427D01*
X6491131Y-19318131D01*
X6516929Y-19292333D01*
X6534764Y-19292707D01*
X6679477Y-19267190D01*
X6816477Y-19214051D01*
X6940548Y-19135314D01*
X7046961Y-19033977D01*
X7080803Y-18986003D01*
X8012715Y-18986003D01*
X8039241Y-19130535D01*
X8093335Y-19267161D01*
X8172937Y-19390678D01*
X8275014Y-19496382D01*
X8395678Y-19580246D01*
X8530333Y-19639075D01*
X8673851Y-19670630D01*
X8820764Y-19673707D01*
X8965477Y-19648190D01*
X9102477Y-19595051D01*
X9226548Y-19516314D01*
X9262791Y-19481800D01*
X14891784Y-19481800D01*
X14897241Y-19511535D01*
X14951335Y-19648161D01*
X15030937Y-19771678D01*
X15133014Y-19877382D01*
X15253678Y-19961246D01*
X15388333Y-20020075D01*
X15531851Y-20051630D01*
X15678764Y-20054707D01*
X15823477Y-20029190D01*
X15960477Y-19976051D01*
X16084548Y-19897314D01*
X16190961Y-19795977D01*
X16275665Y-19675902D01*
X16335433Y-19541660D01*
X16367989Y-19398367D01*
X16370333Y-19230527D01*
X16341791Y-19086380D01*
X16285794Y-18950523D01*
X16204476Y-18828129D01*
X16100933Y-18723861D01*
X15979110Y-18641690D01*
X15843646Y-18584746D01*
X15699702Y-18555199D01*
X15662199Y-18554937D01*
X15635131Y-18527869D01*
X15595257Y-18495116D01*
X15555704Y-18461927D01*
X15553129Y-18460511D01*
X15550858Y-18458646D01*
X15505378Y-18434260D01*
X15460135Y-18409387D01*
X15457333Y-18408498D01*
X15454744Y-18407110D01*
X15405416Y-18392029D01*
X15356181Y-18376411D01*
X15353258Y-18376083D01*
X15350451Y-18375225D01*
X15299137Y-18370012D01*
X15247802Y-18364254D01*
X15242061Y-18364214D01*
X15241950Y-18364203D01*
X15241847Y-18364213D01*
X15240000Y-18364200D01*
X9264124Y-18364200D01*
X9242933Y-18342861D01*
X9121110Y-18260690D01*
X8985646Y-18203746D01*
X8841702Y-18174199D01*
X8694760Y-18173173D01*
X8550418Y-18200708D01*
X8414172Y-18255754D01*
X8291214Y-18336216D01*
X8186225Y-18439028D01*
X8103206Y-18560275D01*
X8045318Y-18695338D01*
X8014766Y-18839072D01*
X8012715Y-18986003D01*
X7080803Y-18986003D01*
X7131665Y-18913902D01*
X7191433Y-18779660D01*
X7223989Y-18636367D01*
X7226333Y-18468527D01*
X7197791Y-18324380D01*
X7141794Y-18188523D01*
X7060476Y-18066129D01*
X6956933Y-17961861D01*
X6835110Y-17879690D01*
X6699646Y-17822746D01*
X6555702Y-17793199D01*
X6408760Y-17792173D01*
X6264418Y-17819708D01*
X6128172Y-17874754D01*
X6005214Y-17955216D01*
X5900225Y-18058028D01*
X5817206Y-18179275D01*
X5759318Y-18314338D01*
X5748719Y-18364200D01*
X5207000Y-18364200D01*
X5155586Y-18369241D01*
X5104209Y-18373736D01*
X5101390Y-18374555D01*
X5098462Y-18374842D01*
X5049030Y-18389767D01*
X4999480Y-18404162D01*
X4996870Y-18405515D01*
X4994058Y-18406364D01*
X4948503Y-18430586D01*
X4902656Y-18454351D01*
X4900359Y-18456185D01*
X4897765Y-18457564D01*
X4857780Y-18490175D01*
X4817424Y-18522390D01*
X4813337Y-18526421D01*
X4813250Y-18526492D01*
X4813183Y-18526573D01*
X4811869Y-18527869D01*
X4277372Y-19062366D01*
X4249760Y-19062173D01*
X4105418Y-19089708D01*
X3969172Y-19144754D01*
X3846214Y-19225216D01*
X3741225Y-19328028D01*
X3658206Y-19449275D01*
X3600318Y-19584338D01*
X3569766Y-19728072D01*
X3567715Y-19875003D01*
X3543100Y-19875003D01*
X3543100Y-18044800D01*
X3538448Y-17997351D01*
X3534123Y-17949835D01*
X3533621Y-17948131D01*
X3533448Y-17946362D01*
X3519670Y-17900726D01*
X3506197Y-17854949D01*
X3505373Y-17853372D01*
X3504860Y-17851674D01*
X3482492Y-17809606D01*
X3460372Y-17767295D01*
X3459258Y-17765909D01*
X3458424Y-17764341D01*
X3428289Y-17727392D01*
X3398395Y-17690211D01*
X3397034Y-17689069D01*
X3395910Y-17687691D01*
X3359173Y-17657300D01*
X3322625Y-17626632D01*
X3321066Y-17625775D01*
X3319699Y-17624644D01*
X3277804Y-17601992D01*
X3235950Y-17578982D01*
X3234254Y-17578444D01*
X3232693Y-17577600D01*
X3187147Y-17563501D01*
X3141670Y-17549075D01*
X3139905Y-17548877D01*
X3138206Y-17548351D01*
X3090751Y-17543363D01*
X3043376Y-17538049D01*
X3039965Y-17538025D01*
X3039838Y-17538012D01*
X3039710Y-17538024D01*
X3036300Y-17538000D01*
X543100Y-17538000D01*
X543100Y-551600D01*
X2929500Y-551600D01*
X2929500Y-16444800D01*
M02*
